<?xml version="1.0" encoding="UTF-8"?>
<svg version="1.1" xmlns="http://www.w3.org/2000/svg" width="1024" height="1024">
<path d="M0 0 C337.92 0 675.84 0 1024 0 C1024 337.92 1024 675.84 1024 1024 C686.08 1024 348.16 1024 0 1024 C0 686.08 0 348.16 0 0 Z " fill="#FEFEFE" transform="translate(0,0)"/>
<path d="M0 0 C1.23363281 -0.00128906 2.46726562 -0.00257813 3.73828125 -0.00390625 C5.65833984 0.00189453 5.65833984 0.00189453 7.6171875 0.0078125 C8.90496094 0.00394531 10.19273437 0.00007813 11.51953125 -0.00390625 C13.36611328 -0.00197266 13.36611328 -0.00197266 15.25 0 C16.3755127 0.00112793 17.50102539 0.00225586 18.66064453 0.00341797 C21.4921875 0.1328125 21.4921875 0.1328125 24.4921875 1.1328125 C26.89763266 6.49633681 24.07970303 13.44032938 22.9296875 18.8828125 C22.68927734 20.13320313 22.44886719 21.38359375 22.20117188 22.671875 C20.7167734 29.74613673 19.16915917 36.2519864 13.4921875 41.1328125 C9.34130362 43.35185848 5.72947873 43.35318719 1.07421875 43.29296875 C0.3757634 43.28776718 -0.32269196 43.28256561 -1.04231262 43.27720642 C-3.26019685 43.25948121 -5.47760706 43.22830475 -7.6953125 43.1953125 C-9.92368174 43.16768312 -12.15198629 43.14299449 -14.38044739 43.12413025 C-16.39456921 43.10629842 -18.40859949 43.07889531 -20.42260742 43.05102539 C-23.42028282 42.91265012 -23.42028282 42.91265012 -25.5078125 44.1328125 C-29.41726092 54.15933858 -31.48612493 64.99363367 -33.86328125 75.46289062 C-34.29060547 77.25049805 -34.29060547 77.25049805 -34.7265625 79.07421875 C-34.97341797 80.14357666 -35.22027344 81.21293457 -35.47460938 82.31469727 C-36.64326719 85.50227221 -37.88658913 87.00692144 -40.5078125 89.1328125 C-44.00034716 90.29699072 -46.75744924 90.26232079 -50.44140625 90.265625 C-51.11575211 90.26658173 -51.79009796 90.26753845 -52.48487854 90.26852417 C-53.90959771 90.26920391 -55.33432 90.267364 -56.7590332 90.26318359 C-58.93382777 90.25784071 -61.10841504 90.26313119 -63.28320312 90.26953125 C-64.66927129 90.26887027 -66.05533932 90.26758869 -67.44140625 90.265625 C-68.70009521 90.26449707 -69.95878418 90.26336914 -71.25561523 90.26220703 C-73.88949339 90.15741344 -76.01325685 89.91990871 -78.5078125 89.1328125 C-79.49282097 85.92499317 -79.53213118 83.2851155 -79.2734375 79.94921875 C-79.19577148 78.9452002 -79.11810547 77.94118164 -79.03808594 76.90673828 C-77.25487661 56.47439027 -74.34261695 41.0432365 -57.921875 27.11328125 C-41.38869247 13.54965092 -22.29399201 0.02229718 0 0 Z " fill="#0558B1" transform="translate(223.5078125,474.8671875)"/>
<path d="M0 0 C1.11002632 -0.00287018 1.11002632 -0.00287018 2.24247742 -0.00579834 C3.79292139 -0.00715007 5.34337707 -0.00352494 6.89379883 0.00488281 C9.27255285 0.01567415 11.65056484 0.00491454 14.02929688 -0.0078125 C15.54036625 -0.00649222 17.05143516 -0.00393256 18.5625 0 C19.62963982 -0.00607269 19.62963982 -0.00607269 20.71833801 -0.01226807 C25.71924239 0.03564864 25.71924239 0.03564864 27.94921875 2.265625 C29.58006016 14.78482903 26.46571368 34.7845031 19.0078125 44.8984375 C16.74855967 47.46809202 14.39379197 49.87239177 11.94921875 52.265625 C10.86060547 53.40644531 10.86060547 53.40644531 9.75 54.5703125 C5.0752571 59.42130244 0.09686812 63.73431831 -5.16015625 67.94140625 C-8.18790167 70.37587723 -11.14940685 72.87893144 -14.11328125 75.390625 C-28.32502846 87.21846623 -39.12714809 93.44352426 -57.67578125 93.453125 C-58.92875 93.46537109 -60.18171875 93.47761719 -61.47265625 93.49023438 C-62.66632813 93.49216797 -63.86 93.49410156 -65.08984375 93.49609375 C-66.18506348 93.50020264 -67.2802832 93.50431152 -68.40869141 93.50854492 C-71.05078125 93.265625 -71.05078125 93.265625 -73.05078125 91.265625 C-72.61508714 84.09119534 -71.19704708 77.05766137 -69.80078125 70.015625 C-69.60871094 68.9534375 -69.41664062 67.89125 -69.21875 66.796875 C-68.03357636 60.86355289 -67.10610683 57.06496907 -62.05078125 53.265625 C-58.4257063 50.84890837 -56.58394039 50.97480139 -52.265625 50.88671875 C-51.28028526 50.86122704 -51.28028526 50.86122704 -50.27503967 50.83522034 C-48.17955081 50.78216112 -46.08408063 50.74182482 -43.98828125 50.703125 C-41.8890115 50.65917507 -39.78989368 50.61246475 -37.69081116 50.56031799 C-35.78872453 50.51381167 -33.88642441 50.47629828 -31.98413086 50.43920898 C-29.11679697 50.46263136 -29.11679697 50.46263136 -27.05078125 49.265625 C-26.34531589 47.03194512 -26.34531589 47.03194512 -25.8671875 44.296875 C-25.66343506 43.25821289 -25.45968262 42.21955078 -25.24975586 41.14941406 C-24.93470093 39.47443848 -24.93470093 39.47443848 -24.61328125 37.765625 C-24.3922876 36.63608398 -24.17129395 35.50654297 -23.94360352 34.34277344 C-22.95417679 29.23937638 -22.00825179 24.13525189 -21.19921875 19 C-21.0144397 17.84854492 -21.0144397 17.84854492 -20.82592773 16.67382812 C-20.50922228 14.64947802 -20.21475396 12.62168432 -19.921875 10.59375 C-18.92378594 6.78042318 -17.94285089 4.94115033 -15.05078125 2.265625 C-9.99873095 0.46703859 -5.31597998 -0.03068783 0 0 Z " fill="#25A614" transform="translate(181.05078125,423.734375)"/>
<path d="M0 0 C6.30435607 6.8908078 9.09704657 14.92024246 8.9609375 24.1484375 C8.20389383 31.87028298 5.38148938 38.42761329 -0.484375 43.56640625 C-7.52355636 48.84579227 -14.7261032 48.79419265 -23.3125 47.9375 C-30.06421803 46.29360344 -34.57806408 42.74263276 -38.3125 36.9375 C-42.68685688 29.56405754 -42.45322626 20.22501733 -40.69140625 12.05859375 C-38.25586455 4.96846123 -33.84779146 0.39851087 -27.296875 -3.15625 C-18.04383031 -7.09061546 -8.34571777 -5.19639031 0 0 Z " fill="#0852AF" transform="translate(658.3125,489.0625)"/>
<path d="M0 0 C4.29 0 8.58 0 13 0 C13 9.9 13 19.8 13 30 C23.23 30 33.46 30 44 30 C44 20.1 44 10.2 44 0 C47.96 0 51.92 0 56 0 C56 23.43 56 46.86 56 71 C52.04 71 48.08 71 44 71 C44 60.77 44 50.54 44 40 C33.77 40 23.54 40 13 40 C13 50.23 13 60.46 13 71 C8.71 71 4.42 71 0 71 C0 47.57 0 24.14 0 0 Z " fill="#0352AF" transform="translate(277,466)"/>
<path d="M0 0 C5.35894333 4.1845156 8.25310827 8.97270324 9.80859375 15.59375 C9.80859375 17.57375 9.80859375 19.55375 9.80859375 21.59375 C5.51859375 21.59375 1.22859375 21.59375 -3.19140625 21.59375 C-3.77921875 19.2425 -3.77921875 19.2425 -4.37890625 16.84375 C-5.71980492 12.32939114 -7.01564045 10.05638111 -11.19140625 7.59375 C-14.26335533 6.05777546 -16.79384918 6.3672462 -20.19140625 6.59375 C-25.58829239 8.60435464 -28.5750158 11.27772152 -31.1015625 16.4609375 C-35.16037901 26.76844361 -33.89349215 38.35393794 -30.19140625 48.59375 C-27.94355219 52.21932106 -26.09657689 53.99994361 -22.19140625 55.59375 C-17.39148016 56.14456119 -12.78965163 56.12649846 -8.19140625 54.59375 C-5.22680767 51.62915142 -4.43337584 48.58112604 -3.19140625 44.59375 C1.42859375 44.59375 6.04859375 44.59375 10.80859375 44.59375 C10.37630617 51.51035123 8.04438596 56.63250985 2.875 61.36328125 C-6.1137272 68.34696155 -15.12178544 68.83018281 -26.19140625 67.59375 C-33.16842385 65.68083452 -38.32557699 61.67728069 -42.19140625 55.59375 C-48.39095788 43.99201673 -49.04669274 29.82985011 -46.47265625 17.015625 C-45.56034218 14.381686 -44.5381379 12.0311135 -43.19140625 9.59375 C-42.64806641 8.58828125 -42.64806641 8.58828125 -42.09375 7.5625 C-38.45885693 1.74667108 -33.17654854 -1.20071177 -26.94140625 -3.71875 C-17.48201867 -5.45297106 -8.25697281 -5.29859218 0 0 Z " fill="#0552B0" transform="translate(601.19140625,469.40625)"/>
<path d="M0 0 C4.9125824 4.39546846 6.76549812 10.82805352 7.24121094 17.26269531 C7.29417271 20.86709382 7.26222332 24.45853697 7.1875 28.0625 C7.16719727 29.93325195 7.16719727 29.93325195 7.14648438 31.84179688 C7.1113902 34.89498967 7.06222267 37.9472599 7 41 C8.32 41 9.64 41 11 41 C11 43.97 11 46.94 11 50 C2.07081668 50.45402627 2.07081668 50.45402627 -2 47 C-2.62890625 44.890625 -2.62890625 44.890625 -3 43 C-3.55429687 43.42152344 -4.10859375 43.84304688 -4.6796875 44.27734375 C-5.40414063 44.82519531 -6.12859375 45.37304688 -6.875 45.9375 C-7.59429687 46.48277344 -8.31359375 47.02804687 -9.0546875 47.58984375 C-14.09281019 51.24197687 -19.99865229 50.5329664 -26 50 C-30.04745778 48.53715477 -32.77052687 45.63756142 -35 42 C-36.59121454 37.22635638 -36.79879085 32.84983145 -34.8125 28.25 C-29.26660459 21.36544018 -22.3622308 19.68933499 -13.83984375 18.59375 C-11.22695051 18.35100379 -8.61986572 18.14695572 -6 18 C-6.27999599 14.36005214 -6.60673788 11.65543687 -8.5 8.5 C-11.84545649 6.49272611 -14.14128357 6.65760999 -17.9375 7.23828125 C-20.37257117 7.90925303 -20.37257117 7.90925303 -22.0625 11.0625 C-22.371875 12.031875 -22.68125 13.00125 -23 14 C-26.96 14 -30.92 14 -35 14 C-33.23196141 7.41896747 -31.95693248 3.82142838 -26 0 C-17.54408163 -4.40635409 -8.53583842 -4.24215712 0 0 Z " fill="#061A6B" transform="translate(428,487)"/>
<path d="M0 0 C4.86418651 4.18595571 7.35068555 8.86088511 9 15 C9 18.3 9 21.6 9 25 C-2.22 25 -13.44 25 -25 25 C-23.02721628 34.44688354 -23.02721628 34.44688354 -19 38 C-15.25163917 39.24945361 -11.92217292 39.46770681 -8 39 C-6.05967596 37.81104764 -6.05967596 37.81104764 -5 36 C-4.34 35.01 -3.68 34.02 -3 33 C-0.1796875 32.70703125 -0.1796875 32.70703125 3.125 32.8125 C4.76855469 32.85310547 4.76855469 32.85310547 6.4453125 32.89453125 C7.70988281 32.94673828 7.70988281 32.94673828 9 33 C7.32629523 39.39050914 4.21797478 43.92194601 -1.375 47.375 C-8.05887188 50.39926142 -16.53601887 50.16242344 -23.53515625 48.33984375 C-29.94221971 45.48814498 -34.35426072 40.28435156 -36.875 33.8125 C-39.28624623 25.38749084 -39.13961403 15.8419449 -35 8 C-26.64500505 -4.02612909 -12.73466186 -8.13003836 0 0 Z " fill="#0653B1" transform="translate(378,488)"/>
<path d="M0 0 C5.98570082 4.27219266 8.39578501 8.92258094 10 16 C10 19.3 10 22.6 10 26 C-0.89 26 -11.78 26 -23 26 C-21.83362805 33.58764371 -21.83362805 33.58764371 -18 39 C-14.30201992 40.23266003 -10.84478297 40.58136839 -7 40 C-4.56880377 38.12984906 -3.35930827 36.71861655 -2 34 C1.96 34 5.92 34 10 34 C9.01711084 40.02019608 6.78659085 42.61558955 2.16796875 46.51953125 C-4.39187601 50.99913695 -11.30973163 50.68009176 -19 50 C-25.59381627 48.33574605 -30.32642695 43.5798596 -34 38 C-35.95991238 33.38997355 -36.35352003 29.07963345 -36.3125 24.125 C-36.30686035 23.41609619 -36.3012207 22.70719238 -36.29541016 21.97680664 C-36.11308043 14.1339207 -34.24153078 8.37496638 -28.86328125 2.54296875 C-20.46475984 -4.41178168 -9.52046868 -4.80296535 0 0 Z " fill="#0752B0" transform="translate(815,487)"/>
<path d="M0 0 C3.96 0 7.92 0 12 0 C12 8.25 12 16.5 12 25 C14.64 23.02 17.28 21.04 20 19 C25.28278834 17.85690277 30.32618026 18.45220445 35.4375 20.125 C40.58281398 23.88986389 43.40226355 27.87131569 45 34 C45.2513068 36.89792385 45.23386433 39.77272876 45.1953125 42.6796875 C45.1924826 43.49245148 45.18965271 44.30521545 45.18673706 45.14260864 C45.17560619 47.72022675 45.15051515 50.29748819 45.125 52.875 C45.11496101 54.63020329 45.10583677 56.38541206 45.09765625 58.140625 C45.07569015 62.42721926 45.04120978 66.7135493 45 71 C40.71 71 36.42 71 32 71 C31.9906543 69.90534424 31.98130859 68.81068848 31.97167969 67.68286133 C31.93172063 63.61034889 31.86594598 59.5385872 31.79248047 55.46655273 C31.76430501 53.70623439 31.74307341 51.94579033 31.72900391 50.18530273 C31.70752627 47.65022589 31.66085408 45.1166549 31.609375 42.58203125 C31.60814636 41.79850784 31.60691772 41.01498444 31.60565186 40.2077179 C31.47390314 35.26084956 30.74755784 32.56568402 27 29 C24.761862 28.29239141 24.761862 28.29239141 22.4375 28.5 C21.67308594 28.5103125 20.90867187 28.520625 20.12109375 28.53125 C17.42885358 29.1262202 16.62554931 29.77606008 15 32 C13.14011074 36.61733061 12.66827571 40.88011573 12.5859375 45.8046875 C12.56657135 46.5286673 12.5472052 47.25264709 12.5272522 47.99856567 C12.46790114 50.29059398 12.42125122 52.58267374 12.375 54.875 C12.33677913 56.43752081 12.29772506 58.00002148 12.2578125 59.5625 C12.16223692 63.37483465 12.07804394 67.1872678 12 71 C8.04 71 4.08 71 0 71 C0 47.57 0 24.14 0 0 Z " fill="#0D3384" transform="translate(502,466)"/>
<path d="M0 0 C3.63 0 7.26 0 11 0 C11 2.64 11 5.28 11 8 C11.66 8 12.32 8 13 8 C13.20625 7.4225 13.4125 6.845 13.625 6.25 C15.55254779 3.09583089 17.57171514 1.28068113 21 0 C27.42647968 -0.80110911 33.586016 -0.9251384 39 3 C44.55918567 8.86802931 45.29452454 14.05996766 45.1953125 21.80078125 C45.1924826 22.63715622 45.18965271 23.47353119 45.18673706 24.33525085 C45.1755832 26.99448226 45.15048763 29.65337118 45.125 32.3125 C45.11496399 34.12043783 45.10583923 35.92838096 45.09765625 37.73632812 C45.07565959 42.15768312 45.04116294 46.57878358 45 51 C41.04 51 37.08 51 33 51 C32.98541748 49.96593018 32.97083496 48.93186035 32.95581055 47.86645508 C32.89769118 44.01763918 32.82045977 40.16940001 32.73754883 36.32104492 C32.70436345 34.65772892 32.67631166 32.99430204 32.65356445 31.33081055 C32.61990001 28.93490501 32.5675806 26.54000965 32.51171875 24.14453125 C32.50532883 23.4047554 32.4989389 22.66497955 32.49235535 21.90278625 C32.36670029 17.45691138 31.7451024 14.53855268 29 11 C25.80508241 9.40254121 22.46790611 9.49183158 19 10 C16.03141843 12.20740681 15.17134209 13.48597373 14 17 C13.84653047 19.65606301 13.74282102 22.29095095 13.68359375 24.94921875 C13.66281265 25.72183548 13.64203156 26.49445221 13.62062073 27.29048157 C13.55528962 29.7560648 13.49631685 32.22175361 13.4375 34.6875 C13.39429913 36.36003691 13.35068434 38.03256319 13.30664062 39.70507812 C13.1996251 43.8032775 13.09831143 47.90158296 13 52 C11.02090602 52.02686553 9.04171029 52.04633375 7.0625 52.0625 C5.96035156 52.07410156 4.85820313 52.08570313 3.72265625 52.09765625 C1 52 1 52 0 51 C-0.09333705 49.40389018 -0.11745372 47.80366572 -0.11352539 46.20483398 C-0.11344986 45.18385117 -0.11337433 44.16286835 -0.11329651 43.11094666 C-0.10813522 42.0005452 -0.10297394 40.89014374 -0.09765625 39.74609375 C-0.0962413 38.61551041 -0.09482635 37.48492706 -0.09336853 36.32008362 C-0.08775019 32.69252935 -0.07519458 29.06503576 -0.0625 25.4375 C-0.05748736 22.98502693 -0.05292405 20.5325529 -0.04882812 18.08007812 C-0.0377748 12.05336187 -0.02049788 6.02669124 0 0 Z " fill="#0446A2" transform="translate(727,485)"/>
<path d="M0 0 C5.39308524 4.62264449 8.16565866 8.97670603 8.79693604 16.22384644 C8.8545253 18.34887773 8.85039177 20.46426628 8.8203125 22.58984375 C8.8174826 23.35680069 8.81465271 24.12375763 8.81173706 24.91395569 C8.80063475 27.33863621 8.77554967 29.76293309 8.75 32.1875 C8.7399573 33.8417915 8.73083372 35.49608885 8.72265625 37.15039062 C8.70072817 41.18373923 8.66626843 45.2168048 8.625 49.25 C4.335 49.25 0.045 49.25 -4.375 49.25 C-4.37910889 48.18563721 -4.38321777 47.12127441 -4.38745117 46.0246582 C-4.40927448 42.06388366 -4.46359606 38.10409805 -4.52758789 34.14379883 C-4.55074025 32.43198141 -4.56515715 30.7200221 -4.57055664 29.00805664 C-4.57986703 26.54223502 -4.62089779 24.07863626 -4.66796875 21.61328125 C-4.6640361 20.85163162 -4.66010345 20.08998199 -4.65605164 19.30525208 C-4.76451513 15.32758078 -5.22769877 13.43899404 -7.70043945 10.26635742 C-10.29860868 7.99141717 -10.29860868 7.99141717 -13.875 7.625 C-18.21933642 8.40077436 -19.63701776 9.86778665 -22.375 13.25 C-23.9024639 16.3049278 -23.61491832 19.5263314 -23.69140625 22.8828125 C-23.71218735 23.63464813 -23.73296844 24.38648376 -23.75437927 25.16110229 C-23.81982705 27.56564085 -23.87873738 29.97028967 -23.9375 32.375 C-23.98068977 34.00391771 -24.02430421 35.63282422 -24.06835938 37.26171875 C-24.17550351 41.25769915 -24.27678433 45.25379059 -24.375 49.25 C-28.335 49.25 -32.295 49.25 -36.375 49.25 C-36.375 32.42 -36.375 15.59 -36.375 -1.75 C-33.075 -1.75 -29.775 -1.75 -26.375 -1.75 C-26.045 0.56 -25.715 2.87 -25.375 5.25 C-24.92769531 4.84007812 -24.48039063 4.43015625 -24.01953125 4.0078125 C-16.46687599 -2.72355189 -9.49031389 -4.9209035 0 0 Z " fill="#0654B1" transform="translate(710.375,486.75)"/>
<path d="M0 0 C4.98172799 3.15310056 8.1783573 6.06866704 9.5 11.9375 C9.7475 13.9484375 9.7475 13.9484375 10 16 C5.71 16 1.42 16 -3 16 C-3.433125 14.88625 -3.86625 13.7725 -4.3125 12.625 C-5.69911119 8.82487666 -5.69911119 8.82487666 -9 7 C-12.20532766 6.60383591 -14.94929693 6.94748073 -18 8 C-21.80553091 11.05317307 -22.842048 14.66584232 -23.40234375 19.3984375 C-23.57453135 25.85891623 -23.55277255 31.48707708 -20 37 C-17.20742302 39.33972666 -15.55821799 39.94303898 -11.9375 40.3125 C-8.94549609 39.99420171 -7.38625198 39.81026012 -5 38 C-3.23272142 34.9665533 -3.23272142 34.9665533 -2 32 C1.96 32 5.92 32 10 32 C9.40957946 38.19941562 7.11786993 42.04504314 2.5625 46.25 C-4.42439057 51.02153503 -11.85773307 50.6842969 -20 50 C-26.22733938 48.40496062 -30.59615759 44.35495457 -34 39 C-37.90392936 31.20687309 -38.2865851 22.48018206 -35.75 14.1875 C-33.21181889 7.54553074 -29.66458918 2.33731028 -23.18359375 -0.91015625 C-15.22844534 -4.25723435 -7.69895 -3.76244339 0 0 Z " fill="#093B92" transform="translate(867,487)"/>
<path d="M0 0 C3.96 0 7.92 0 12 0 C12 4.62 12 9.24 12 14 C15.3 14 18.6 14 22 14 C22 16.97 22 19.94 22 23 C18.7 23 15.4 23 12 23 C12.06887495 27.21811497 12.15683738 31.43527005 12.26245117 35.65258789 C12.29569001 37.08704628 12.32372535 38.52163513 12.34643555 39.95629883 C12.38000271 42.01960807 12.43231413 44.08172303 12.48828125 46.14453125 C12.51446533 47.38565674 12.54064941 48.62678223 12.56762695 49.90551758 C12.75655088 52.95779266 12.75655088 52.95779266 14.33276367 54.91674805 C16.84615565 56.54977194 19.08435321 56.19437645 22 56 C22 59.3 22 62.6 22 66 C8.04093774 66.68839211 8.04093774 66.68839211 4.25 64.25 C0.92736584 60.92736584 0.06822841 59.1019255 -0.22705078 54.33300781 C-0.2267359 52.87300858 -0.21554172 51.41298412 -0.1953125 49.953125 C-0.1924826 49.18192322 -0.18965271 48.41072144 -0.18673706 47.6161499 C-0.17557013 45.16060668 -0.15047229 42.7054324 -0.125 40.25 C-0.11496568 38.58203653 -0.10584061 36.91406732 -0.09765625 35.24609375 C-0.07564225 31.16392103 -0.04113667 27.082023 0 23 C-2.64 23 -5.28 23 -8 23 C-8 20.03 -8 17.06 -8 14 C-5.36 14 -2.72 14 0 14 C0 9.38 0 4.76 0 0 Z " fill="#0554B2" transform="translate(888,471)"/>
<path d="M0 0 C3.96 0 7.92 0 12 0 C12 4.62 12 9.24 12 14 C15.3 14 18.6 14 22 14 C22 16.97 22 19.94 22 23 C18.7 23 15.4 23 12 23 C12.06876343 27.37882456 12.15667083 31.75671521 12.26245117 36.13476562 C12.29573463 37.62456572 12.32375597 39.11449295 12.34643555 40.60449219 C12.37992071 42.74469252 12.43222789 44.88372419 12.48828125 47.0234375 C12.51446533 48.31169434 12.54064941 49.59995117 12.56762695 50.92724609 C12.71031006 51.94125488 12.85299316 52.95526367 13 54 C16.18762365 56.12508244 18.26512223 56.5020163 22 57 C22 59.97 22 62.94 22 66 C19.77144426 66.0814222 17.54202345 66.13938079 15.3125 66.1875 C13.45044922 66.23970703 13.45044922 66.23970703 11.55078125 66.29296875 C6.97255623 65.91522741 4.61552955 64.58657654 1.37890625 61.40795898 C-0.60834413 57.93765967 -0.37143002 54.62003243 -0.29296875 50.734375 C-0.28872391 49.94097717 -0.28447906 49.14757935 -0.28010559 48.33013916 C-0.2633504 45.8030768 -0.22570506 43.27682017 -0.1875 40.75 C-0.17244903 39.03386571 -0.15876134 37.31771888 -0.14648438 35.6015625 C-0.11345735 31.40073254 -0.06169765 27.20050275 0 23 C-2.64 23 -5.28 23 -8 23 C-8 20.03 -8 17.06 -8 14 C-5.36 14 -2.72 14 0 14 C0 9.38 0 4.76 0 0 Z " fill="#054CA9" transform="translate(472,471)"/>
<path d="M0 0 C4.29 0 8.58 0 13 0 C13 23.43 13 46.86 13 71 C8.71 71 4.42 71 0 71 C0 47.57 0 24.14 0 0 Z " fill="#0755B3" transform="translate(445,466)"/>
<path d="M0 0 C7.7665488 -0.1184441 7.7665488 -0.1184441 10.67578125 2.51953125 C14.31601973 7.62016039 15.13742904 11.81001657 15.31640625 18.07421875 C15.33718735 18.7580513 15.35796844 19.44188385 15.37937927 20.1464386 C15.44466154 22.3266921 15.50366017 24.50706405 15.5625 26.6875 C15.60570553 28.16732986 15.64932047 29.64714783 15.69335938 31.12695312 C15.80032083 34.75117622 15.90164823 38.37553189 16 42 C17.32 42 18.64 42 20 42 C20 43.98 20 45.96 20 48 C12.65306122 48.48979592 12.65306122 48.48979592 9.5 46.125 C8 44 8 44 8 42 C5.03824877 42.61277612 3.61941217 43.25372522 1 45 C1.60520662 41.6108429 2.91300745 39.69569871 5 37 C5.96070434 34.11788698 6.10581883 32.30149956 6.0625 29.3125 C6.05347656 28.50425781 6.04445313 27.69601562 6.03515625 26.86328125 C6.02355469 26.24839844 6.01195312 25.63351562 6 25 C5.67 25.33 5.34 25.66 5 26 C5.00585648 27.41726718 5.05469201 28.8344657 5.125 30.25 C5.1640926 34.34820762 4.73428416 36.77745082 2 40 C-1.80905531 42.37352269 -4.61080023 42.15473292 -8.93359375 41.53515625 C-11 41 -11 41 -13.125 39.3125 C-14.35683673 36.05693151 -14.09799267 34.293978 -13 31 C-10.4375 28.625 -10.4375 28.625 -8 27 C-9.32 27 -10.64 27 -12 27 C-12 25.35 -12 23.7 -12 22 C-7.68193184 20.56064395 -3.36075802 20.56092986 1.1640625 20.28125 C3.89869363 20.31259668 3.89869363 20.31259668 5 19 C5.29339895 16.0660105 5.50460337 13.85584037 5 11 C2.66663334 7.99666733 2.66663334 7.99666733 0 6 C0.66 4.68 1.32 3.36 2 2 C1.34 1.34 0.68 0.68 0 0 Z " fill="#0752B0" transform="translate(418,487)"/>
<path d="M0 0 C4.86418651 4.18595571 7.35068555 8.86088511 9 15 C9 18.3 9 21.6 9 25 C-2.22 25 -13.44 25 -25 25 C-25 26.65 -25 28.3 -25 30 C-25.33 30 -25.66 30 -26 30 C-26 28.02 -26 26.04 -26 24 C-15.11 24 -4.22 24 7 24 C6.43178052 13.73192211 6.43178052 13.73192211 2 5 C-0.17209427 3.68830812 -1.45433682 3 -4 3 C-4 2.34 -4 1.68 -4 1 C-4.66 1 -5.32 1 -6 1 C-5.56109595 3.45786266 -5.14539053 4.83037772 -3.5 6.75 C-1.29065625 10.06401563 -1.32885089 13.05378934 -1 17 C-4.2159105 19.14394034 -5.11030934 19.25580474 -8.81640625 19.265625 C-10.20956055 19.26949219 -10.20956055 19.26949219 -11.63085938 19.2734375 C-12.59830078 19.26570313 -13.56574219 19.25796875 -14.5625 19.25 C-15.53380859 19.25773437 -16.50511719 19.26546875 -17.50585938 19.2734375 C-18.43333984 19.27085937 -19.36082031 19.26828125 -20.31640625 19.265625 C-21.16662354 19.26336914 -22.01684082 19.26111328 -22.89282227 19.25878906 C-25 19 -25 19 -27 17 C-27.1953125 14.3984375 -27.1953125 14.3984375 -27.125 11.375 C-27.10695313 10.37210937 -27.08890625 9.36921875 -27.0703125 8.3359375 C-27.04710937 7.56507813 -27.02390625 6.79421875 -27 6 C-26.01 6 -25.02 6 -24 6 C-23.34 4.68 -22.68 3.36 -22 2 C-25.63435292 2.24779679 -27.49701597 2.52575792 -30.1875 5.0625 C-35.21614543 13.21237363 -35.95725946 20.51249514 -35 30 C-33.76956603 35.05404061 -32.19524716 38.80475284 -28.5 42.5 C-24.5331187 44.88012878 -21.93470339 46.25557312 -17.234375 46.1953125 C-15.90019531 46.18564453 -15.90019531 46.18564453 -14.5390625 46.17578125 C-13.61867188 46.15902344 -12.69828125 46.14226563 -11.75 46.125 C-10.34621094 46.11146484 -10.34621094 46.11146484 -8.9140625 46.09765625 C-6.60911343 46.07413636 -4.3046884 46.04126853 -2 46 C-2.495 46.99 -2.495 46.99 -3 48 C-9.55246546 50.18415515 -19.17470591 50.3455619 -25.5625 47.4375 C-31.65516206 43.64945359 -35.56323138 38.39588204 -37.53125 31.51953125 C-39.01024848 23.56991441 -38.82952269 15.25451834 -35 8 C-26.64500505 -4.02612909 -12.73466186 -8.13003836 0 0 Z " fill="#073688" transform="translate(378,488)"/>
<path d="M0 0 C2.97 0 5.94 0 9 0 C9.02505615 0.84296631 9.0501123 1.68593262 9.07592773 2.55444336 C9.17088155 5.67241674 9.27012448 8.79021503 9.37231445 11.90795898 C9.41571223 13.25914147 9.4573837 14.61038053 9.49731445 15.96166992 C9.55489952 17.90036701 9.61914298 19.83886276 9.68359375 21.77734375 C9.72025146 22.94515381 9.75690918 24.11296387 9.79467773 25.31616211 C9.70076188 27.91779795 9.70076188 27.91779795 11 29 C13.37338639 29.15971977 15.72118272 29.2592433 18.09765625 29.31640625 C18.80651474 29.33718735 19.51537323 29.35796844 20.24571228 29.37937927 C22.51787305 29.44494598 24.79015264 29.5037923 27.0625 29.5625 C28.59962183 29.60567849 30.1367315 29.64929255 31.67382812 29.69335938 C35.4490959 29.80063449 39.2244836 29.90188137 43 30 C43 30.33 43 30.66 43 31 C34.42 31.33 25.84 31.66 17 32 C17 32.99 17 33.98 17 35 C24.92 35 32.84 35 41 35 C41 35.33 41 35.66 41 36 C30.77 36 20.54 36 10 36 C9.67 46.23 9.34 56.46 9 67 C6.03 67 3.06 67 0 67 C0 44.89 0 22.78 0 0 Z " fill="#0556B3" transform="translate(279,468)"/>
<path d="M0 0 C4.14725315 1.62469711 6.17236301 5.21902279 8.00390625 9.08203125 C10.05731985 15.21525345 9.90603993 22.37254297 7.26953125 28.3046875 C5.11340566 31.92335982 3.01799048 33.55272811 -1.10546875 34.7421875 C-4.77869371 35.03084958 -7.80638555 34.84288853 -10.69140625 32.3984375 C-14.79777536 27.55624503 -15.31150288 24.125426 -15.35546875 17.9921875 C-15.37609375 17.28835938 -15.39671875 16.58453125 -15.41796875 15.859375 C-15.4534827 11.08274923 -14.70581362 7.89167399 -12.10546875 3.7421875 C-8.12885425 0.13549063 -5.18488049 -0.97154548 0 0 Z " fill="#F8FBFC" transform="translate(645.10546875,493.2578125)"/>
<path d="M0 0 C6.30435607 6.8908078 9.09704657 14.92024246 8.9609375 24.1484375 C8.20389383 31.87028298 5.38148938 38.42761329 -0.484375 43.56640625 C-7.52355636 48.84579227 -14.7261032 48.79419265 -23.3125 47.9375 C-29.9267038 46.32708516 -34.74106421 42.75383828 -38.3125 36.9375 C-38.96875 34.71875 -38.96875 34.71875 -39.3125 32.9375 C-38.6525 32.9375 -37.9925 32.9375 -37.3125 32.9375 C-36.26953125 34.546875 -36.26953125 34.546875 -35.125 36.6875 C-32.54547877 40.85158427 -30.1323744 43.60548998 -25.3125 44.9375 C-20.00520806 45.65019349 -14.66038373 45.80909943 -9.3125 45.9375 C-8.9825 44.6175 -8.6525 43.2975 -8.3125 41.9375 C-7.3225 41.9375 -6.3325 41.9375 -5.3125 41.9375 C-4.9825 40.2875 -4.6525 38.6375 -4.3125 36.9375 C-6.46245047 37.39820367 -8.2399823 37.89844036 -10.18359375 38.9453125 C-13.84844127 40.65333318 -17.37281147 40.73072588 -21.3125 39.9375 C-24.00319244 38.24845219 -26.15928764 36.26380017 -28.3125 33.9375 C-27.9825 32.9475 -27.6525 31.9575 -27.3125 30.9375 C-26.6525 31.906875 -25.9925 32.87625 -25.3125 33.875 C-23.17781746 36.42694344 -21.67107636 37.45592598 -18.375 38 C-14.29353528 38.19252192 -11.64444493 37.41708693 -8.3125 34.9375 C-4.56201889 29.06174627 -4.49876065 22.75482748 -5.3125 15.9375 C-6.57921416 11.67425772 -8.30989317 8.8317169 -11.625 5.875 C-15.33603948 4.58045134 -17.54261598 4.86039028 -21.3125 5.9375 C-26.76599314 9.53184775 -27.51221053 14.44335653 -28.83203125 20.48828125 C-28.99058594 21.29652344 -29.14914062 22.10476563 -29.3125 22.9375 C-29.6425 22.9375 -29.9725 22.9375 -30.3125 22.9375 C-30.76930193 16.54227295 -29.92598205 12.29256192 -26.3125 6.9375 C-23.29214545 3.5815505 -21.90092799 3.00288089 -17.375 2.5 C-11.17085953 2.83883253 -7.57035801 5.67964199 -3.3125 9.9375 C-2.3225 9.9375 -1.3325 9.9375 -0.3125 9.9375 C-0.3125 10.5975 -0.3125 11.2575 -0.3125 11.9375 C0.6775 11.9375 1.6675 11.9375 2.6875 11.9375 C3.10736946 9.64913778 3.10736946 9.64913778 2.6875 6.9375 C-2.29508856 0.95839372 -7.29341672 -1.60485564 -14.92578125 -2.30078125 C-21.24301698 -2.47448238 -26.2323882 -2.06669293 -31.3125 1.9375 C-35.68445228 6.68173643 -38.45436166 10.80011224 -38.41015625 17.38671875 C-38.40693359 18.23427734 -38.40371094 19.08183594 -38.40039062 19.95507812 C-38.39201172 20.83615234 -38.38363281 21.71722656 -38.375 22.625 C-38.37048828 23.51767578 -38.36597656 24.41035156 -38.36132812 25.33007812 C-38.34954983 27.53261987 -38.33310164 29.73502599 -38.3125 31.9375 C-38.9725 31.9375 -39.6325 31.9375 -40.3125 31.9375 C-42.93042046 24.08373861 -42.19246167 14.59512921 -38.703125 7.125 C-35.05303434 1.38328436 -29.78761114 -2.59826285 -23.3046875 -4.62890625 C-15.04961023 -6.42559954 -7.08029328 -4.40848449 0 0 Z " fill="#093588" transform="translate(658.3125,489.0625)"/>
<path d="M0 0 C0.66 0.66 1.32 1.32 2 2 C5.58343976 2.16677282 5.58343976 2.16677282 9 2 C9.33 4.31 9.66 6.62 10 9 C11.87053397 8.86965506 11.87053397 8.86965506 14 8 C14.639375 7.195625 15.27875 6.39125 15.9375 5.5625 C18.27533095 2.65792215 19.41665364 1.89583659 23 1 C28.72775311 0.54541642 31.95691856 0.97415113 37 4 C36.34 4.33 35.68 4.66 35 5 C34.67 5.66 34.34 6.32 34 7 C33.01 6.34 32.02 5.68 31 5 C30.01 6.485 30.01 6.485 29 8 C26.79296875 8.15234375 26.79296875 8.15234375 24.1875 7.9375 C20.6356649 7.84524454 19.22652776 7.88201679 16 9.5625 C12.01540072 14.41873038 11.7307757 20.30631617 11.515625 26.39453125 C11.4915155 27.06796066 11.46740601 27.74139008 11.44256592 28.43522644 C11.39465233 29.84428896 11.35118233 31.25350913 11.31201172 32.6628418 C11.24964552 34.82478815 11.16664903 36.98530702 11.08203125 39.14648438 C11.0378274 40.52079416 10.99481547 41.89514292 10.953125 43.26953125 C10.91348633 44.51323486 10.87384766 45.75693848 10.83300781 47.03833008 C10.67694721 50.12106642 10.67694721 50.12106642 13 52 C11.02090602 52.02686553 9.04171029 52.04633375 7.0625 52.0625 C5.96035156 52.07410156 4.85820313 52.08570313 3.72265625 52.09765625 C1 52 1 52 0 51 C-0.09333705 49.40389018 -0.11745372 47.80366572 -0.11352539 46.20483398 C-0.11344986 45.18385117 -0.11337433 44.16286835 -0.11329651 43.11094666 C-0.10813522 42.0005452 -0.10297394 40.89014374 -0.09765625 39.74609375 C-0.0962413 38.61551041 -0.09482635 37.48492706 -0.09336853 36.32008362 C-0.08775019 32.69252935 -0.07519458 29.06503576 -0.0625 25.4375 C-0.05748736 22.98502693 -0.05292405 20.5325529 -0.04882812 18.08007812 C-0.0377748 12.05336455 -0.02101884 6.02668661 0 0 Z " fill="#0654B2" transform="translate(727,485)"/>
<path d="M0 0 C5.98570082 4.27219266 8.39578501 8.92258094 10 16 C10 19.3 10 22.6 10 26 C-1.22 26 -12.44 26 -24 26 C-24 25.34 -24 24.68 -24 24 C-13.44 24 -2.88 24 8 24 C7.04069952 12.04184749 7.04069952 12.04184749 0.2421875 3.3984375 C-4.99103995 -0.39406336 -9.69501649 -0.58140217 -16 0 C-15.01 1.485 -15.01 1.485 -14 3 C-12.1128125 3.061875 -12.1128125 3.061875 -10.1875 3.125 C-7.23222692 3.36767753 -6.30883715 3.64570318 -4.328125 5.91796875 C-0.82616496 11.94802916 -0.82616496 11.94802916 -1.37890625 15.29296875 C-1.58386719 15.85628906 -1.78882813 16.41960937 -2 17 C-2.25394531 16.44570313 -2.50789062 15.89140625 -2.76953125 15.3203125 C-3.11371094 14.59585937 -3.45789063 13.87140625 -3.8125 13.125 C-4.14894531 12.40570313 -4.48539063 11.68640625 -4.83203125 10.9453125 C-5.99467097 8.69457194 -5.99467097 8.69457194 -9 7 C-12.99796146 6.55578206 -15.269648 6.59424889 -18.8125 8.5625 C-21.66045088 11.37817284 -21.66045088 11.37817284 -23 18 C-16.4 18 -9.8 18 -3 18 C-3 18.66 -3 19.32 -3 20 C-6.27081471 20.02902429 -9.5415963 20.04680684 -12.8125 20.0625 C-13.74126953 20.07087891 -14.67003906 20.07925781 -15.62695312 20.08789062 C-16.51962891 20.09111328 -17.41230469 20.09433594 -18.33203125 20.09765625 C-19.56530151 20.10551147 -19.56530151 20.10551147 -20.82348633 20.11352539 C-23 20 -23 20 -26 19 C-26.73046875 17.15234375 -26.73046875 17.15234375 -27.1875 14.9375 C-27.34605469 14.20402344 -27.50460937 13.47054688 -27.66796875 12.71484375 C-27.77753906 12.14894531 -27.88710938 11.58304687 -28 11 C-28.66 11 -29.32 11 -30 11 C-30.66 12.65 -31.32 14.3 -32 16 C-32.66 16 -33.32 16 -34 16 C-34.43850686 25.45225909 -34.22257826 34.18967859 -28.3125 42 C-23.28109419 47.21548163 -17.22024733 47.11002397 -10.375 47.3125 C-5.51717067 47.2226442 -2.0103083 46.98202412 2 44 C4.48522988 41.31326499 5.8418238 39.47452861 7 36 C4.36 36 1.72 36 -1 36 C-1.268125 36.61875 -1.53625 37.2375 -1.8125 37.875 C-3 40 -3 40 -6 42 C-11.00549194 42.6663658 -15.51422288 42.80479594 -20 40.375 C-22.27243073 37.67648851 -23.75946651 35.30808932 -25 32 C-24.5703125 29.8125 -24.5703125 29.8125 -24 28 C-23.68546875 28.69867187 -23.3709375 29.39734375 -23.046875 30.1171875 C-22.61890625 31.02726563 -22.1909375 31.93734375 -21.75 32.875 C-21.33234375 33.77992188 -20.9146875 34.68484375 -20.484375 35.6171875 C-18.83551201 38.26404651 -17.91663014 39.01317025 -15 40 C-12.2738293 40.45791149 -9.72631308 40.47024702 -7 40 C-4.56880377 38.12984906 -3.35930827 36.71861655 -2 34 C1.96 34 5.92 34 10 34 C9.01711084 40.02019608 6.78659085 42.61558955 2.16796875 46.51953125 C-4.39187601 50.99913695 -11.30973163 50.68009176 -19 50 C-25.59381627 48.33574605 -30.32642695 43.5798596 -34 38 C-35.95991238 33.38997355 -36.35352003 29.07963345 -36.3125 24.125 C-36.30686035 23.41609619 -36.3012207 22.70719238 -36.29541016 21.97680664 C-36.11308043 14.1339207 -34.24153078 8.37496638 -28.86328125 2.54296875 C-20.46475984 -4.41178168 -9.52046868 -4.80296535 0 0 Z " fill="#043F98" transform="translate(815,487)"/>
<path d="M0 0 C4.29 0 8.58 0 13 0 C13 9.9 13 19.8 13 30 C23.23 30 33.46 30 44 30 C44 20.1 44 10.2 44 0 C47.96 0 51.92 0 56 0 C56 23.43 56 46.86 56 71 C52.04 71 48.08 71 44 71 C44 60.77 44 50.54 44 40 C33.77 40 23.54 40 13 40 C13 50.23 13 60.46 13 71 C8.71 71 4.42 71 0 71 C0 47.57 0 24.14 0 0 Z M2 2 C2 24.11 2 46.22 2 69 C4.97 69 7.94 69 11 69 C11.33 58.77 11.66 48.54 12 38 C28.335 38.495 28.335 38.495 45 39 C45 48.9 45 58.8 45 69 C48.3 69 51.6 69 55 69 C55 46.89 55 24.78 55 2 C51.7 2 48.4 2 45 2 C45 11.57 45 21.14 45 31 C40.46095634 31.02291161 35.92211198 31.04283781 31.38305664 31.05493164 C29.83780234 31.0599714 28.29255284 31.0668032 26.74731445 31.07543945 C24.53074971 31.08752076 22.31424782 31.09323173 20.09765625 31.09765625 C19.05545677 31.10539818 19.05545677 31.10539818 17.99220276 31.11329651 C16.3277067 31.11349277 14.66334501 31.06189129 13 31 C11.16780354 29.16780354 11.76098672 26.24286259 11.68359375 23.77734375 C11.62075195 21.88725586 11.62075195 21.88725586 11.55664062 19.95898438 C11.51682404 18.61849264 11.47711186 17.2779978 11.4375 15.9375 C11.39431958 14.59308477 11.35070544 13.2486834 11.30664062 11.90429688 C11.20014642 8.6029766 11.0981354 5.30157764 11 2 C8.03 2 5.06 2 2 2 Z " fill="#041A6C" transform="translate(277,466)"/>
<path d="M0 0 C6.77461196 -0.56039989 11.72624534 -0.49917515 17.34765625 3.5703125 C20.76833283 6.53004684 23.28467693 9.82223537 25 14 C25.01171875 16.32421875 25.01171875 16.32421875 24.6875 18.6875 C24.58824219 19.47511719 24.48898437 20.26273437 24.38671875 21.07421875 C24 23 24 23 23 24 C20.85441173 24.08775605 18.70595579 24.10695219 16.55859375 24.09765625 C15.25341797 24.09443359 13.94824219 24.09121094 12.60351562 24.08789062 C11.2148431 24.07953401 9.82617123 24.07106905 8.4375 24.0625 C7.04492344 24.05748666 5.65234519 24.05292347 4.25976562 24.04882812 C0.8398013 24.03699434 -2.58007844 24.0205088 -6 24 C-5.67 23.34 -5.34 22.68 -5 22 C1.27 22 7.54 22 14 22 C14 21.01 14 20.02 14 19 C7.4 19 0.8 19 -6 19 C-5 12 -5 12 -2.375 9.0625 C1.57599825 6.64800107 3.45238113 6.25584418 8 7 C11.97248797 9.38349278 13.65216226 11.58889469 15 16 C13.73025028 11.58477891 13.73025028 11.58477891 11 8 C11 7.01 11 6.02 11 5 C7.7 5 4.4 5 1 5 C1 4.01 1 3.02 1 2 C0.67 1.34 0.34 0.68 0 0 Z " fill="#0651AE" transform="translate(798,486)"/>
<path d="M0 0 C5.46824397 2.83538576 9.05324498 6.28466279 11.09716797 12.14672852 C12.08219883 16.35082317 12.25601706 20.05010428 12.1953125 24.33984375 C12.1924826 25.10680069 12.18965271 25.87375763 12.18673706 26.66395569 C12.17563475 29.08863621 12.15054967 31.51293309 12.125 33.9375 C12.1149573 35.5917915 12.10583372 37.24608885 12.09765625 38.90039062 C12.07572817 42.93373923 12.04126843 46.9668048 12 51 C7.71 51 3.42 51 -1 51 C-1.00410889 49.93563721 -1.00821777 48.87127441 -1.01245117 47.7746582 C-1.03427448 43.81388366 -1.08859606 39.85409805 -1.15258789 35.89379883 C-1.17574025 34.18198141 -1.19015715 32.4700221 -1.19555664 30.75805664 C-1.20486703 28.29223502 -1.24589779 25.82863626 -1.29296875 23.36328125 C-1.2890361 22.60163162 -1.28510345 21.83998199 -1.28105164 21.05525208 C-1.38951513 17.07758078 -1.85269877 15.18899404 -4.32543945 12.01635742 C-6.92360868 9.74141717 -6.92360868 9.74141717 -10.5 9.375 C-14.84433642 10.15077436 -16.26201776 11.61778665 -19 15 C-20.5274639 18.0549278 -20.23991832 21.2763314 -20.31640625 24.6328125 C-20.33718735 25.38464813 -20.35796844 26.13648376 -20.37937927 26.91110229 C-20.44482705 29.31564085 -20.50373738 31.72028967 -20.5625 34.125 C-20.60568977 35.75391771 -20.64930421 37.38282422 -20.69335938 39.01171875 C-20.80050351 43.00769915 -20.90178433 47.00379059 -21 51 C-24.96 51 -28.92 51 -33 51 C-33 34.17 -33 17.34 -33 0 C-29.7 0 -26.4 0 -23 0 C-22.67 2.31 -22.34 4.62 -22 7 C-19.69 5.35 -17.38 3.7 -15 2 C-16.2748209 4.84383123 -17.45137078 7.13754018 -20 9 C-22.1875 8.6875 -22.1875 8.6875 -24 8 C-24 6.02 -24 4.04 -24 2 C-26.31 2 -28.62 2 -31 2 C-31 17.51 -31 33.02 -31 49 C-28.36 49 -25.72 49 -23 49 C-23.01047363 48.19369141 -23.02094727 47.38738281 -23.03173828 46.55664062 C-23.07354696 42.87112599 -23.09940513 39.18566146 -23.125 35.5 C-23.15013672 33.59734375 -23.15013672 33.59734375 -23.17578125 31.65625 C-23.25621279 16.21339398 -23.25621279 16.21339398 -18.9375 10.0625 C-15.0393426 7.32549587 -11.75235658 6.4310559 -7 7 C-3.67158813 8.60779218 -1.57312621 10.90262542 0.14794922 14.19799805 C1.22300968 17.73337596 1.24953319 21.05104941 1.1953125 24.70703125 C1.1924826 25.43242599 1.18965271 26.15782074 1.18673706 26.90519714 C1.17559799 29.20780368 1.15050566 31.51001227 1.125 33.8125 C1.11496206 35.37955165 1.10583763 36.94660943 1.09765625 38.51367188 C1.0756793 42.34259978 1.04119339 46.17123256 1 50 C3.97 50 6.94 50 10 50 C9.93082593 45.00074063 9.84271747 40.00229407 9.73754883 35.00366211 C9.70442917 33.30551214 9.67635739 31.60725552 9.65356445 29.90893555 C9.61977831 27.45836213 9.56745361 25.00875469 9.51171875 22.55859375 C9.50532883 21.80726669 9.4989389 21.05593964 9.49235535 20.28184509 C9.32186071 14.07832986 8.16229014 9.1068468 3.5625 4.625 C-1.43795819 1.45397773 -6.63714126 1.31018282 -12.4375 2.5 C-12.953125 2.665 -13.46875 2.83 -14 3 C-13.67 2.01 -13.34 1.02 -13 0 C-8.55774061 -1.48075313 -4.55152749 -0.91598603 0 0 Z " fill="#0E2470" transform="translate(707,485)"/>
<path d="M0 0 C3.92331434 0.22418939 4.96128088 0.95952092 7.75 3.875 C11.27677928 8.77330455 11.13446097 12.7886357 11.09765625 18.60546875 C11.0962413 19.44467361 11.09482635 20.28387848 11.09336853 21.14851379 C11.08777215 23.82821216 11.07522035 26.5078269 11.0625 29.1875 C11.05748453 31.00455608 11.05292171 32.82161348 11.04882812 34.63867188 C11.03780391 39.09248013 11.02054178 43.54622589 11 48 C8.03 48 5.06 48 2 48 C1.97494385 46.96069336 1.9498877 45.92138672 1.92407227 44.85058594 C1.82979074 40.98897297 1.72962092 37.12753117 1.62768555 33.26611328 C1.58441511 31.59590666 1.54273451 29.92565806 1.50268555 28.25537109 C1.44479149 25.85241045 1.3811526 23.44965959 1.31640625 21.046875 C1.29969376 20.30193787 1.28298126 19.55700073 1.26576233 18.78948975 C1.16866036 15.37952143 0.90868047 12.28594534 0 9 C0.4375 6.75 0.4375 6.75 1 5 C-0.32 4.67 -1.64 4.34 -3 4 C-2.01 2.68 -1.02 1.36 0 0 Z " fill="#0553B0" transform="translate(534,488)"/>
<path d="M0 0 C1.2065625 0.0309375 1.2065625 0.0309375 2.4375 0.0625 C2.19773437 1.25359375 2.19773437 1.25359375 1.953125 2.46875 C1.32348927 6.85712024 1.21504188 11.13514223 1.1875 15.5625 C1.166875 16.39136719 1.14625 17.22023438 1.125 18.07421875 C1.08491372 24.37778581 2.28709549 28.50889465 6.4375 33.4375 C10.98101978 35.89857322 15.38060705 35.8741001 20.4375 35.0625 C23.00740998 33.24985352 23.00740998 33.24985352 24.4375 31.0625 C25.0975 31.0625 25.7575 31.0625 26.4375 31.0625 C26.4375 33.0425 26.4375 35.0225 26.4375 37.0625 C20.64043072 41.03763322 14.26442252 40.72041368 7.4375 40.0625 C5.751081 39.4475096 4.07877735 38.78943253 2.4375 38.0625 C1.591875 37.959375 0.74625 37.85625 -0.125 37.75 C-4.61581081 36.48336105 -6.13964712 32.81759442 -8.3125 28.9375 C-10.67644972 23.03408459 -10.07461107 16.53770351 -8.8125 10.4375 C-7.5625 8.0625 -7.5625 8.0625 -5.4375 7.1875 C-4.81875 7.14625 -4.2 7.105 -3.5625 7.0625 C-3.583125 6.093125 -3.60375 5.12375 -3.625 4.125 C-3.54257968 0.08640438 -3.54257968 0.08640438 0 0 Z " fill="#0453B1" transform="translate(841.5625,493.9375)"/>
<path d="M0 0 C1.65 0 3.3 0 5 0 C5.01458252 0.65073486 5.02916504 1.30146973 5.04418945 1.97192383 C5.11864549 4.91938306 5.21531266 7.86570642 5.3125 10.8125 C5.33505859 11.83666016 5.35761719 12.86082031 5.38085938 13.91601562 C5.41630859 14.89892578 5.45175781 15.88183594 5.48828125 16.89453125 C5.51446533 17.80050049 5.54064941 18.70646973 5.56762695 19.63989258 C6.07940058 22.43340789 7.00791205 23.08539141 9 25 C8.77589301 29.18333056 8.3385104 31.49223439 6 35 C5.63072954 38.0042707 5.63072954 38.0042707 5.5859375 41.41796875 C5.54726563 42.67158203 5.50859375 43.92519531 5.46875 45.21679688 C5.4378125 46.52712891 5.406875 47.83746094 5.375 49.1875 C5.33680662 50.5228116 5.29775409 51.85809892 5.2578125 53.19335938 C5.16340847 56.46209888 5.07782983 59.73083064 5 63 C2.525 63.99 2.525 63.99 0 65 C-1.76308705 63.23691295 -1.12762146 60.72441599 -1.12939453 58.33447266 C-1.13254669 57.12296539 -1.13569885 55.91145813 -1.13894653 54.66323853 C-1.1369223 53.34351044 -1.13489807 52.02378235 -1.1328125 50.6640625 C-1.13348574 49.30504336 -1.13445593 47.94602434 -1.13571167 46.58700562 C-1.13718871 43.73377337 -1.13503456 40.88057237 -1.13037109 38.02734375 C-1.1246846 34.36981011 -1.12794589 30.71235002 -1.13394356 27.05481911 C-1.13755824 24.24613899 -1.13640622 21.43747627 -1.13381577 18.62879562 C-1.13282364 16.62408145 -1.1358622 14.61936659 -1.13894653 12.61465454 C-1.13579437 11.39684296 -1.13264221 10.17903137 -1.12939453 8.92431641 C-1.12859894 7.850336 -1.12780334 6.77635559 -1.12698364 5.66983032 C-1 3 -1 3 0 0 Z " fill="#0054B1" transform="translate(506,469)"/>
<path d="M0 0 C0.2475 0.556875 0.495 1.11375 0.75 1.6875 C2.87913948 5.62640804 4.67082087 8.55694029 9 10 C14.21402771 10.58476293 14.21402771 10.58476293 18.875 8.6875 C19.24625 8.130625 19.6175 7.57375 20 7 C20.66 6.01 21.32 5.02 22 4 C24.8203125 3.70703125 24.8203125 3.70703125 28.125 3.8125 C29.76855469 3.85310547 29.76855469 3.85310547 31.4453125 3.89453125 C32.70988281 3.94673828 32.70988281 3.94673828 34 4 C32.54446666 9.55749092 30.16409712 14.07062248 25.11621094 17.14868164 C21.28359071 18.69048445 17.33211557 18.41072227 13.25 18.4375 C12.38117188 18.47037109 11.51234375 18.50324219 10.6171875 18.53710938 C4.16227448 18.59041571 0.01201602 17.08558053 -5 13 C-8 9.71875 -8 9.71875 -8 7 C-7.360625 6.87625 -6.72125 6.7525 -6.0625 6.625 C-5.381875 6.41875 -4.70125 6.2125 -4 6 C-3.67 5.34 -3.34 4.68 -3 4 C-2.01268258 2.65724831 -1.01405257 1.32267727 0 0 Z " fill="#074FAD" transform="translate(353,517)"/>
<path d="M0 0 C3.96 0 7.92 0 12 0 C12 4.62 12 9.24 12 14 C15.3 14 18.6 14 22 14 C22 16.97 22 19.94 22 23 C18.7 23 15.4 23 12 23 C12.06887495 27.21811497 12.15683738 31.43527005 12.26245117 35.65258789 C12.29569001 37.08704628 12.32372535 38.52163513 12.34643555 39.95629883 C12.38000271 42.01960807 12.43231413 44.08172303 12.48828125 46.14453125 C12.51446533 47.38565674 12.54064941 48.62678223 12.56762695 49.90551758 C12.75655088 52.95779266 12.75655088 52.95779266 14.33276367 54.91674805 C16.84615565 56.54977194 19.08435321 56.19437645 22 56 C22 59.3 22 62.6 22 66 C8.04093774 66.68839211 8.04093774 66.68839211 4.25 64.25 C0.92736584 60.92736584 0.06822841 59.1019255 -0.22705078 54.33300781 C-0.2267359 52.87300858 -0.21554172 51.41298412 -0.1953125 49.953125 C-0.1924826 49.18192322 -0.18965271 48.41072144 -0.18673706 47.6161499 C-0.17557013 45.16060668 -0.15047229 42.7054324 -0.125 40.25 C-0.11496568 38.58203653 -0.10584061 36.91406732 -0.09765625 35.24609375 C-0.07564225 31.16392103 -0.04113667 27.082023 0 23 C-2.64 23 -5.28 23 -8 23 C-8 20.03 -8 17.06 -8 14 C-5.36 14 -2.72 14 0 14 C0 9.38 0 4.76 0 0 Z M2 1 C1.67 5.29 1.34 9.58 1 14 C-1.31 14.66 -3.62 15.32 -6 16 C-6 17.65 -6 19.3 -6 21 C-3.36 21.33 -0.72 21.66 2 22 C1.98428955 23.06436279 1.9685791 24.12872559 1.95239258 25.2253418 C1.89796946 29.18555086 1.86360507 33.14572704 1.83520508 37.10620117 C1.8201466 38.81817184 1.79969545 40.53010411 1.77368164 42.24194336 C1.7371681 44.70696505 1.72024438 47.17147535 1.70703125 49.63671875 C1.69154739 50.39836838 1.67606354 51.16001801 1.66011047 51.94474792 C1.65868328 56.481983 2.16742431 59.40386417 5 63 C7.88415883 64.44207941 10.41721528 64.09394887 13.625 64.0625 C15.40777344 64.04896484 15.40777344 64.04896484 17.2265625 64.03515625 C18.14179687 64.02355469 19.05703125 64.01195312 20 64 C20 62.02 20 60.04 20 58 C18.88625 57.731875 17.7725 57.46375 16.625 57.1875 C13 56 13 56 11 53 C10.75708008 49.92138672 10.75708008 49.92138672 10.76953125 46.1796875 C10.76998947 45.52042267 10.77044769 44.86115784 10.7709198 44.18191528 C10.77393585 42.79166865 10.78180285 41.4014252 10.79418945 40.01123047 C10.81249266 37.87585583 10.81469875 35.74091379 10.81445312 33.60546875 C10.85251004 23.14748996 10.85251004 23.14748996 12 22 C14.65463121 21.54540142 17.32189138 21.29756762 20 21 C20 19.35 20 17.7 20 16 C16.7 15.67 13.4 15.34 10 15 C10 10.38 10 5.76 10 1 C7.36 1 4.72 1 2 1 Z " fill="#021D77" transform="translate(888,471)"/>
<path d="M0 0 C4.29 0 8.58 0 13 0 C13 23.43 13 46.86 13 71 C8.71 71 4.42 71 0 71 C0 47.57 0 24.14 0 0 Z M2 2 C2 24.11 2 46.22 2 69 C4.97 69 7.94 69 11 69 C11 46.89 11 24.78 11 2 C8.03 2 5.06 2 2 2 Z " fill="#0B2277" transform="translate(445,466)"/>
<path d="M0 0 C7.41322292 -1.293004 14.33190322 -0.38044374 20.8359375 3.390625 C25.18443713 6.62452725 28.34076334 10.15068183 29.58203125 15.515625 C29.875 18 29.875 18 30 22 C27.03 22 24.06 22 21 22 C20.16180842 20.37750059 19.3295884 18.75191503 18.5 17.125 C18.0359375 16.22007812 17.571875 15.31515625 17.09375 14.3828125 C16 12 16 12 16 10 C11.86581409 8.05543072 8.230003 7.62971979 3.6875 7.375 C2.43324219 7.30023438 1.17898438 7.22546875 -0.11328125 7.1484375 C-1.06589844 7.09945313 -2.01851562 7.05046875 -3 7 C-2.38722388 4.03824877 -1.74627478 2.61941217 0 0 Z " fill="#0654B2" transform="translate(579,467)"/>
<path d="M0 0 C3.3 0 6.6 0 10 0 C10 2.64 10 5.28 10 8 C10.66 8 11.32 8 12 8 C12.20625 7.4225 12.4125 6.845 12.625 6.25 C14.55254779 3.09583089 16.57171514 1.28068113 20 0 C26.42647968 -0.80110911 32.586016 -0.9251384 38 3 C43.55918567 8.86802931 44.29452454 14.05996766 44.1953125 21.80078125 C44.1924826 22.63715622 44.18965271 23.47353119 44.18673706 24.33525085 C44.1755832 26.99448226 44.15048763 29.65337118 44.125 32.3125 C44.11496399 34.12043783 44.10583923 35.92838096 44.09765625 37.73632812 C44.07565959 42.15768312 44.04116294 46.57878358 44 51 C40.04 51 36.08 51 32 51 C31.98541748 49.97116699 31.97083496 48.94233398 31.95581055 47.88232422 C31.89761343 44.04653053 31.82038297 40.21131078 31.73754883 36.37597656 C31.70439982 34.71949616 31.67633691 33.06290554 31.65356445 31.40625 C31.61983268 29.01775366 31.56751041 26.63025829 31.51171875 24.2421875 C31.50532883 23.50757294 31.4989389 22.77295837 31.49235535 22.01608276 C31.35910234 17.30188889 30.39471597 14.05345404 28 10 C31.875 11.75 31.875 11.75 33 14 C33.08675538 16.69893181 33.11557897 19.37169231 33.09765625 22.0703125 C33.0962413 22.86654022 33.09482635 23.66276794 33.09336853 24.48312378 C33.08776345 27.0304538 33.07521014 29.57769647 33.0625 32.125 C33.05748565 33.85025915 33.05292263 35.57551967 33.04882812 37.30078125 C33.03779237 41.53388791 33.02052436 45.76692914 33 50 C35.97 50 38.94 50 42 50 C41.93094471 44.69762219 41.84289179 39.39601955 41.73754883 34.09423828 C41.70438227 32.29224271 41.67632475 30.49014533 41.65356445 28.68798828 C41.61986568 26.09103177 41.56754351 23.49500134 41.51171875 20.8984375 C41.50532883 20.0982016 41.4989389 19.2979657 41.49235535 18.47348022 C41.3656256 13.60552332 40.63948903 10.24016927 38 6 C34.51336808 3.1086467 30.37385676 1.76110596 25.875 1.5625 C21.81754586 2.02059966 19.40797841 2.78085127 16 5 C15.46375 5.721875 14.9275 6.44375 14.375 7.1875 C13.92125 7.785625 13.4675 8.38375 13 9 C11.68 9 10.36 9 9 9 C8.67 6.69 8.34 4.38 8 2 C5.69 2 3.38 2 1 2 C1 16.19 1 30.38 1 45 C0.67 45 0.34 45 0 45 C0 30.15 0 15.3 0 0 Z " fill="#021567" transform="translate(728,485)"/>
<path d="M0 0 C2.40544516 5.36352431 -0.41248447 12.30751688 -1.5625 17.75 C-1.80291016 19.00039063 -2.04332031 20.25078125 -2.29101562 21.5390625 C-3.7754141 28.61332423 -5.32302833 35.1191739 -11 40 C-15.20531699 42.27640104 -19.25619925 42.26245549 -23.92578125 42.1953125 C-24.67337204 42.1924826 -25.42096283 42.18965271 -26.19120789 42.18673706 C-28.5651388 42.17559469 -30.93868425 42.15050162 -33.3125 42.125 C-34.9277289 42.11496249 -36.54296376 42.10583799 -38.15820312 42.09765625 C-42.10561594 42.07567489 -46.05274274 42.04118657 -50 42 C-48.95849609 40.50732422 -48.95849609 40.50732422 -47 39 C-44.46587142 38.798819 -42.18576074 38.76901048 -39.6640625 38.8828125 C-38.19271998 38.91588684 -36.72136526 38.94842206 -35.25 38.98046875 C-32.9367232 39.04870845 -30.62415849 39.12503179 -28.31152344 39.21240234 C-26.07486347 39.29115798 -23.8391343 39.33860883 -21.6015625 39.3828125 C-20.91494537 39.41803009 -20.22832825 39.45324768 -19.52090454 39.48953247 C-15.67828711 39.54895163 -14.1536083 39.12455116 -11.12963867 36.67260742 C-6.26557805 30.56841487 -5.15750423 23.82254308 -3.8125 16.3125 C-3.63525391 15.37599609 -3.45800781 14.43949219 -3.27539062 13.47460938 C-2.54811188 9.54056488 -2 6.0198717 -2 2 C-6.17677912 1.89955022 -10.35287985 1.82780601 -14.53051758 1.78027344 C-15.945356 1.76041606 -17.36011531 1.73332034 -18.7746582 1.69824219 C-30.96587962 1.4039564 -41.05157589 3.37932073 -52 9 C-53.43374212 9.6130311 -54.87098489 10.21797682 -56.3125 10.8125 C-61.26804873 12.97844562 -65.59978857 15.87928268 -70 19 C-70.66 18.67 -71.32 18.34 -72 18 C-64.49942185 12.31407785 -56.64391936 7.69944603 -48 4 C-47.39397949 3.73880371 -46.78795898 3.47760742 -46.16357422 3.20849609 C-33.01221759 -2.17459408 -13.56585912 -4.52195304 0 0 Z " fill="#0A216E" transform="translate(248,476)"/>
<path d="M0 0 C3.96 0 7.92 0 12 0 C12 8.25 12 16.5 12 25 C11.67 25 11.34 25 11 25 C11 17.41 11 9.82 11 2 C8.03 2 5.06 2 2 2 C2 24.11 2 46.22 2 69 C4.97 69 7.94 69 11 69 C10.97905273 68.00669678 10.95810547 67.01339355 10.93652344 65.98999023 C10.86373196 62.27952682 10.81805952 58.5691256 10.78027344 54.8581543 C10.76024653 53.25680909 10.73301646 51.6555362 10.69824219 50.05444336 C10.64932581 47.74314463 10.62694289 45.43281846 10.609375 43.12109375 C10.57840729 42.0597245 10.57840729 42.0597245 10.54681396 40.97691345 C10.54437005 35.47489757 12.05371748 32.46275147 15 28 C15.66 28.33 16.32 28.66 17 29 C16.525625 29.7425 16.05125 30.485 15.5625 31.25 C12.89586667 35.94327465 12.8103574 40.29087795 12.68359375 45.609375 C12.66281265 46.33618469 12.64203156 47.06299438 12.62062073 47.81182861 C12.55544488 50.12445991 12.4963896 52.43720093 12.4375 54.75 C12.39428434 56.32162575 12.35066908 57.89324056 12.30664062 59.46484375 C12.19979644 63.30978453 12.09843976 67.15483524 12 71 C8.04 71 4.08 71 0 71 C0 47.57 0 24.14 0 0 Z " fill="#112373" transform="translate(502,466)"/>
<path d="M0 0 C0.66 1.32 1.32 2.64 2 4 C0.9375 5.9375 0.9375 5.9375 -1 8 C-2.670625 8.2165625 -2.670625 8.2165625 -4.375 8.4375 C-8.84570794 9.13123054 -10.19752363 10.53811742 -13 14 C-13.33 14.99 -13.66 15.98 -14 17 C-17.96 17 -21.92 17 -26 17 C-24.23196141 10.41896747 -22.95693248 6.82142838 -17 3 C-11.36419055 0.06319634 -6.28540507 -0.39283782 0 0 Z " fill="#0A50AC" transform="translate(419,484)"/>
<path d="M0 0 C0.79921875 0.00902344 1.5984375 0.01804687 2.421875 0.02734375 C3.02515625 0.03894531 3.6284375 0.05054688 4.25 0.0625 C4.82563851 9.84835462 4.82563851 9.84835462 1.25 14.0625 C-2.55905531 16.43602269 -5.36080023 16.21723292 -9.68359375 15.59765625 C-11.75 15.0625 -11.75 15.0625 -13.875 13.375 C-15.10683673 10.11943151 -14.84799267 8.356478 -13.75 5.0625 C-9.46143588 0.77393588 -5.8938177 -0.08667379 0 0 Z " fill="#F5F8FC" transform="translate(418.75,512.9375)"/>
<path d="M0 0 C3.96 0 7.92 0 12 0 C12 4.62 12 9.24 12 14 C15.3 14 18.6 14 22 14 C22 16.97 22 19.94 22 23 C18.7 23 15.4 23 12 23 C12 33.23 12 43.46 12 54 C11.34 53.67 10.68 53.34 10 53 C9.97534496 48.60343827 9.95716158 44.2069128 9.94506836 39.81030273 C9.94002879 38.31355082 9.93319713 36.81680384 9.92456055 35.32006836 C9.91247841 33.17300193 9.90676809 31.02600038 9.90234375 28.87890625 C9.89448853 26.93866577 9.89448853 26.93866577 9.88647461 24.95922852 C10 22 10 22 11 21 C12.68608966 20.92794489 14.37500659 20.91613932 16.0625 20.9375 C16.98160156 20.94652344 17.90070313 20.95554687 18.84765625 20.96484375 C19.55792969 20.97644531 20.26820313 20.98804688 21 21 C21 19.35 21 17.7 21 16 C20.36191406 16.01160156 19.72382813 16.02320313 19.06640625 16.03515625 C18.24011719 16.04417969 17.41382813 16.05320312 16.5625 16.0625 C15.32693359 16.07990234 15.32693359 16.07990234 14.06640625 16.09765625 C12 16 12 16 11 15 C10.76518307 12.81707226 10.58636677 10.62796826 10.4375 8.4375 C10.31181641 6.64119141 10.31181641 6.64119141 10.18359375 4.80859375 C10.12300781 3.88175781 10.06242187 2.95492188 10 2 C7.03 1.67 4.06 1.34 1 1 C1.01160156 1.99902344 1.02320313 2.99804688 1.03515625 4.02734375 C1.04417969 5.31769531 1.05320312 6.60804688 1.0625 7.9375 C1.07410156 9.22527344 1.08570313 10.51304687 1.09765625 11.83984375 C1 15 1 15 0 16 C-1.99958364 16.04080783 -4.00045254 16.04254356 -6 16 C-6 17.65 -6 19.3 -6 21 C-3.69 21.33 -1.38 21.66 1 22 C1 33.55 1 45.1 1 57 C0.67 57 0.34 57 0 57 C0 45.78 0 34.56 0 23 C-2.64 23 -5.28 23 -8 23 C-8 20.03 -8 17.06 -8 14 C-5.36 14 -2.72 14 0 14 C0 9.38 0 4.76 0 0 Z " fill="#031461" transform="translate(472,471)"/>
<path d="M0 0 C1.2065625 0.0309375 1.2065625 0.0309375 2.4375 0.0625 C2.81883299 2.0539056 3.15075582 4.05529077 3.4375 6.0625 C3.1075 6.3925 2.7775 6.7225 2.4375 7.0625 C1.91762217 12.13789977 1.91762217 12.13789977 4.3125 16.4375 C6.33475682 18.08949185 6.33475682 18.08949185 8.4375 19.0625 C8.1075 20.0525 7.7775 21.0425 7.4375 22.0625 C6.7775 22.0625 6.1175 22.0625 5.4375 22.0625 C5.4375 22.7225 5.4375 23.3825 5.4375 24.0625 C1.08296078 23.80635063 -1.05859768 23.48972153 -4.4375 20.625 C-7.9642889 16.37210751 -7.62446193 13.7268628 -7.5 8.375 C-7.40014219 6.03481107 -7.40014219 6.03481107 -8.5625 4.0625 C-7.758125 3.588125 -6.95375 3.11375 -6.125 2.625 C-1.89583333 0.04623984 -1.89583333 0.04623984 0 0 Z " fill="#0653B1" transform="translate(401.5625,510.9375)"/>
<path d="M0 0 C3.3 0 6.6 0 10 0 C10.33 2.31 10.66 4.62 11 7 C13.31 5.35 15.62 3.7 18 2 C16.7251791 4.84383123 15.54862922 7.13754018 13 9 C10.8125 8.6875 10.8125 8.6875 9 8 C9 6.02 9 4.04 9 2 C6.69 2 4.38 2 2 2 C2 17.51 2 33.02 2 49 C4.64 49 7.28 49 10 49 C9.98952637 48.16227051 9.97905273 47.32454102 9.96826172 46.46142578 C9.93419981 43.35661836 9.90911089 40.25190608 9.89013672 37.14697266 C9.87511893 35.1408864 9.84971019 33.13488676 9.82421875 31.12890625 C9.81777344 29.87207031 9.81132813 28.61523438 9.8046875 27.3203125 C9.79421387 26.15773926 9.78374023 24.99516602 9.77294922 23.79736328 C10 21 10 21 12 19 C12 29.56 12 40.12 12 51 C8.04 51 4.08 51 0 51 C0 34.17 0 17.34 0 0 Z " fill="#02196C" transform="translate(674,485)"/>
<path d="M0 0 C1.15941038 3.47823115 0.70820884 5.45895578 0 9 C-0.66 9 -1.32 9 -2 9 C-2.43850686 18.45225909 -2.22257826 27.18967859 3.6875 35 C8.71890581 40.21548163 14.77975267 40.11002397 21.625 40.3125 C26.48282933 40.2226442 29.9896917 39.98202412 34 37 C36.48522988 34.31326499 37.8418238 32.47452861 39 29 C36.36 29 33.72 29 31 29 C30.731875 29.61875 30.46375 30.2375 30.1875 30.875 C29 33 29 33 26 35 C20.99450806 35.6663658 16.48577712 35.80479594 12 33.375 C9.72756927 30.67648851 8.24053349 28.30808932 7 25 C7.4296875 22.8125 7.4296875 22.8125 8 21 C8.31453125 21.69867187 8.6290625 22.39734375 8.953125 23.1171875 C9.38109375 24.02726563 9.8090625 24.93734375 10.25 25.875 C10.66765625 26.77992188 11.0853125 27.68484375 11.515625 28.6171875 C13.16448799 31.26404651 14.08336986 32.01317025 17 33 C19.7261707 33.45791149 22.27368692 33.47024702 25 33 C27.43119623 31.12984906 28.64069173 29.71861655 30 27 C33.96 27 37.92 27 42 27 C41.01711084 33.02019608 38.78659085 35.61558955 34.16796875 39.51953125 C27.60812399 43.99913695 20.69026837 43.68009176 13 43 C6.40618373 41.33574605 1.67357305 36.5798596 -2 31 C-3.96036315 26.38891325 -4.3506216 22.08022135 -4.3125 17.125 C-4.31048584 16.42044678 -4.30847168 15.71589355 -4.30639648 14.98999023 C-4.20694248 9.84041666 -3.88294871 3.88294871 0 0 Z " fill="#071D65" transform="translate(783,494)"/>
<path d="M0 0 C5.24627415 -0.31477645 8.63776993 -0.03459483 13 3 C17.94240977 9.15469896 19.13473971 14.5699203 19.09765625 22.39453125 C19.09443359 23.59658203 19.09121094 24.79863281 19.08789062 26.03710938 C19.07532227 27.90592773 19.07532227 27.90592773 19.0625 29.8125 C19.05798828 31.07771484 19.05347656 32.34292969 19.04882812 33.64648438 C19.03706251 36.7643711 19.02062272 39.88216133 19 43 C20.32 43 21.64 43 23 43 C23 45.97 23 48.94 23 52 C14.07081668 52.45402627 14.07081668 52.45402627 10 49 C9.37109375 46.890625 9.37109375 46.890625 9 45 C8.44570313 45.42152344 7.89140625 45.84304688 7.3203125 46.27734375 C6.59585937 46.82519531 5.87140625 47.37304688 5.125 47.9375 C4.40570313 48.48277344 3.68640625 49.02804687 2.9453125 49.58984375 C-2.09281019 53.24197687 -7.99865229 52.5329664 -14 52 C-18.04745778 50.53715477 -20.77052687 47.63756142 -23 44 C-24.29721449 40.10835652 -24.13033993 37.10570774 -24 33 C-23.67 32.34 -23.34 31.68 -23 31 C-22.34 31.33 -21.68 31.66 -21 32 C-21.03480469 32.66386719 -21.06960938 33.32773437 -21.10546875 34.01171875 C-21.45506891 41.08895503 -21.45506891 41.08895503 -18 47 C-13.22045173 49.66551731 -9.4399014 50.58284658 -4 50 C0.72903802 48.36929723 4.24912671 46.29622198 8 43 C11 46 11 46 12.1875 47.625 C15.15209123 49.87400025 18.3396605 49.69997217 22 50 C22 48.02 22 46.04 22 44 C20.68 44 19.36 44 18 44 C16.60388405 41.2077681 16.85451704 38.86312979 16.82421875 35.7421875 C16.78844727 33.84339844 16.78844727 33.84339844 16.75195312 31.90625 C16.70562395 29.24183646 16.67791426 26.57900776 16.65820312 23.9140625 C16.4980794 16.55581866 16.19421674 11.16308468 12 5 C8.11258654 2.80891241 4.39978231 1.66663368 0 1 C0 0.67 0 0.34 0 0 Z " fill="#0B2069" transform="translate(416,485)"/>
<path d="M0 0 C5.35894333 4.1845156 8.25310827 8.97270324 9.80859375 15.59375 C9.80859375 17.57375 9.80859375 19.55375 9.80859375 21.59375 C5.51859375 21.59375 1.22859375 21.59375 -3.19140625 21.59375 C-3.58328125 20.02625 -3.97515625 18.45875 -4.37890625 16.84375 C-5.71980492 12.32939114 -7.01564045 10.05638111 -11.19140625 7.59375 C-14.26335533 6.05777546 -16.79384918 6.3672462 -20.19140625 6.59375 C-25.55003293 8.59010112 -28.55650286 11.2363591 -31.06640625 16.390625 C-33.85046656 23.51139464 -33.90284349 31.04136617 -34.19140625 38.59375 C-34.52140625 38.59375 -34.85140625 38.59375 -35.19140625 38.59375 C-35.27297062 35.73899694 -35.33216997 32.88661435 -35.37890625 30.03125 C-35.40404297 29.23138672 -35.42917969 28.43152344 -35.45507812 27.60742188 C-35.55273397 19.63219451 -33.11954311 13.97133888 -28.19140625 7.59375 C-24.45287352 4.86423302 -21.79580767 4.18351223 -17.19140625 4.21875 C-16.18078125 4.21101563 -15.17015625 4.20328125 -14.12890625 4.1953125 C-10.705501 4.65965736 -8.91206792 5.47357393 -6.19140625 7.59375 C-4.609375 10.00390625 -4.609375 10.00390625 -3.37890625 12.65625 C-2.95996094 13.53410156 -2.54101562 14.41195313 -2.109375 15.31640625 C-1.19140625 17.59375 -1.19140625 17.59375 -1.19140625 19.59375 C1.77859375 19.59375 4.74859375 19.59375 7.80859375 19.59375 C6.53949049 12.09450345 4.95260214 6.86751663 -1.14453125 2.05078125 C-8.95692364 -2.69245699 -19.44925542 -2.95188768 -28.26806641 -0.93017578 C-29.92075883 -0.46124144 -31.55824015 0.06077705 -33.19140625 0.59375 C-26.11917672 -8.55854704 -8.43983688 -5.41593811 0 0 Z " fill="#051A65" transform="translate(601.19140625,469.40625)"/>
<path d="M0 0 C2.89305092 1.28580041 4.49900353 2.28429075 6.3125 4.875 C7 7 7 7 7 12 C0.07 12 -6.86 12 -14 12 C-13.05034634 6.30207802 -12.70282493 4.92723856 -9 1 C-5.93570224 -0.53214888 -3.3834358 -0.22938548 0 0 Z " fill="#F8FAFD" transform="translate(367,493)"/>
<path d="M0 0 C2.75329021 1.79562405 4.52627461 3.05254922 6 6 C6 7.98 6 9.96 6 12 C-0.6 12 -7.2 12 -14 12 C-13 5 -13 5 -10.375 2.0625 C-6.42400175 -0.35199893 -4.54761887 -0.74415582 0 0 Z " fill="#F7FAFD" transform="translate(806,493)"/>
<path d="M0 0 C0 3 0 3 -2.75 5.875 C-9.46113968 13.46081428 -10.64719838 23.72302859 -10.3203125 33.5078125 C-9.43957868 43.10995925 -7.73203142 52.86049317 -0.26171875 59.55859375 C7.55115263 65.46425456 17.58157127 64.99073927 27 64 C33.72838417 62.11247264 38.04626777 58.66701619 42 53 C42.33 53.66 42.66 54.32 43 55 C38.55777181 60.96193784 34.28327734 64.96391138 27 67 C18.14287599 68.2367107 8.78955099 68.335472 0.9765625 63.54296875 C-6.25848982 57.89505241 -10.68075275 50.11027346 -12 41 C-12.93804 26.38615254 -12.720185 13.7140691 -3 2 C-2.01 1.34 -1.02 0.68 0 0 Z " fill="#091E6A" transform="translate(566,470)"/>
<path d="M0 0 C5.98570082 4.27219266 8.39578501 8.92258094 10 16 C10 19.3 10 22.6 10 26 C-1.22 26 -12.44 26 -24 26 C-24 25.34 -24 24.68 -24 24 C-13.44 24 -2.88 24 8 24 C7.01122444 12.06785947 7.01122444 12.06785947 0.3125 3.3984375 C-5.36841413 -0.83857762 -11.15634038 -0.72279293 -18 0 C-20.7657607 0.50479375 -23.30656519 1.17125083 -26 2 C-19.72613891 -5.66805245 -7.92719045 -3.99917508 0 0 Z " fill="#051D6A" transform="translate(815,487)"/>
<path d="M0 0 C0.66 1.32 1.32 2.64 2 4 C-1.05854538 7.28701503 -4.31863167 9.65941478 -8.0625 12.125 C-16.56525286 17.85301796 -23.78091743 24.73318796 -31 32 C-32.66666667 33.66666667 -34.33333333 35.33333333 -36 37 C-35.34 35.02 -34.68 33.04 -34 31 C-35.65 31.33 -37.3 31.66 -39 32 C-35.38112749 29.0796231 -31.70444809 26.24824999 -28 23.4375 C-18.32232114 16.03905018 -9.11941764 8.07247543 0 0 Z " fill="#E5F7F2" transform="translate(188,480)"/>
<path d="M0 0 C0.33 0 0.66 0 1 0 C1 7.59 1 15.18 1 23 C5.74256071 22.45903502 5.74256071 22.45903502 7.890625 20.44921875 C10.8802144 18.39526011 13.17018554 18.70510557 16.75 18.8125 C17.92046875 18.83957031 19.0909375 18.86664063 20.296875 18.89453125 C21.18890625 18.92933594 22.0809375 18.96414063 23 19 C22.01 20.65 21.02 22.3 20 24 C20.99 24.33 21.98 24.66 23 25 C23 26.32 23 27.64 23 29 C22.34 29 21.68 29 21 29 C21 28.34 21 27.68 21 27 C18.69 26.34 16.38 25.68 14 25 C14 25.33 14 25.66 14 26 C13.07767578 26.05607422 13.07767578 26.05607422 12.13671875 26.11328125 C10.92435547 26.21189453 10.92435547 26.21189453 9.6875 26.3125 C8.88699219 26.37050781 8.08648438 26.42851562 7.26171875 26.48828125 C4.63727666 27.08206694 3.69179328 27.95780294 2 30 C1.855625 29.195625 1.71125 28.39125 1.5625 27.5625 C1.25864751 25.07896294 1.25864751 25.07896294 0 24 C-0.08726223 22.21928754 -0.10699041 20.4351686 -0.09765625 18.65234375 C-0.09443359 17.57275391 -0.09121094 16.49316406 -0.08789062 15.38085938 C-0.07951172 14.24455078 -0.07113281 13.10824219 -0.0625 11.9375 C-0.05798828 10.79732422 -0.05347656 9.65714844 -0.04882812 8.48242188 C-0.03699747 5.65489649 -0.0205141 2.8274736 0 0 Z " fill="#0748A6" transform="translate(512,468)"/>
<path d="M0 0 C0.33 0 0.66 0 1 0 C1.01458252 0.8971875 1.02916504 1.794375 1.04418945 2.71875 C1.1056308 6.081307 1.1798513 9.44309703 1.26245117 12.80517578 C1.29548803 14.25396281 1.32358455 15.70287199 1.34643555 17.15185547 C1.43133519 28.42566216 1.43133519 28.42566216 5 39 C7.83269666 40.41634833 10.47466438 40.3463005 13.625 40.5625 C14.81351563 40.64628906 16.00203125 40.73007812 17.2265625 40.81640625 C18.59941406 40.90728516 18.59941406 40.90728516 20 41 C20 39.02 20 37.04 20 35 C19.071875 35.061875 18.14375 35.12375 17.1875 35.1875 C14 35 14 35 12.3190918 33.91674805 C10.32846358 31.02420276 10.66302344 28.62114826 10.70703125 25.14453125 C10.71127609 24.48289474 10.71552094 23.82125824 10.71989441 23.13957214 C10.73666307 21.0301309 10.77430901 18.92165154 10.8125 16.8125 C10.82754932 15.38087319 10.8412373 13.94923138 10.85351562 12.51757812 C10.8865597 9.01140712 10.93832833 5.50579746 11 2 C11.33 2 11.66 2 12 2 C12.01458252 2.83249268 12.02916504 3.66498535 12.04418945 4.52270508 C12.1052863 7.61489653 12.17944556 10.70642082 12.26245117 13.7980957 C12.31201319 15.7929063 12.34651133 17.78807257 12.38085938 19.78320312 C12.41630859 21.03681641 12.45175781 22.29042969 12.48828125 23.58203125 C12.51446533 24.73936768 12.54064941 25.8967041 12.56762695 27.08911133 C12.77390483 29.98038662 12.77390483 29.98038662 14.33276367 31.8894043 C16.84171586 33.56069197 19.06967809 33.19535479 22 33 C22 36.3 22 39.6 22 43 C8.04093774 43.68839211 8.04093774 43.68839211 4.25 41.25 C0.92736584 37.92736584 0.06822841 36.1019255 -0.22705078 31.33300781 C-0.2267359 29.87300858 -0.21554172 28.41298412 -0.1953125 26.953125 C-0.1924826 26.18192322 -0.18965271 25.41072144 -0.18673706 24.6161499 C-0.17557013 22.16060668 -0.15047229 19.7054324 -0.125 17.25 C-0.11496568 15.58203653 -0.10584061 13.91406732 -0.09765625 12.24609375 C-0.07564225 8.16392103 -0.04113667 4.082023 0 0 Z " fill="#041563" transform="translate(888,494)"/>
<path d="M0 0 C0 0.99 0 1.98 0 3 C-0.7425 3.515625 -1.485 4.03125 -2.25 4.5625 C-7.10531547 8.86607508 -8.66624277 14.05349676 -9.38671875 20.4140625 C-9.62382649 27.91974875 -8.94633192 34.48663663 -5 41 C-1.81749963 44.18250037 1.72148673 46.77409197 6.29003906 47.22705078 C7.10698242 47.21657715 7.92392578 47.20610352 8.765625 47.1953125 C10.09980469 47.18564453 10.09980469 47.18564453 11.4609375 47.17578125 C12.38132812 47.15902344 13.30171875 47.14226563 14.25 47.125 C15.65378906 47.11146484 15.65378906 47.11146484 17.0859375 47.09765625 C19.39088657 47.07413636 21.6953116 47.04126853 24 47 C23.505 47.99 23.505 47.99 23 49 C16.44753454 51.18415515 6.82529409 51.3455619 0.4375 48.4375 C-5.65516206 44.64945359 -9.56323138 39.39588204 -11.53125 32.51953125 C-13.00588281 24.59337988 -12.85367538 16.22564134 -9 9 C-3.77419355 1.88709677 -3.77419355 1.88709677 0 0 Z " fill="#0C236E" transform="translate(352,487)"/>
<path d="M0 0 C1.485 0.99 1.485 0.99 3 2 C3.36076355 4.02481079 3.36076355 4.02481079 3.34057617 6.54150391 C3.34034958 7.48232819 3.34012299 8.42315247 3.33988953 9.39248657 C3.32440567 10.41023163 3.30892181 11.42797668 3.29296875 12.4765625 C3.28872391 13.51694672 3.28447906 14.55733093 3.28010559 15.62924194 C3.26327482 18.96142147 3.22561422 22.29300241 3.1875 25.625 C3.17245887 27.88019962 3.15876947 30.13540869 3.14648438 32.390625 C3.11335699 37.92728855 3.0631142 43.46360152 3 49 C5.01822917 48.90234375 7.03645833 48.8046875 9.0546875 48.70703125 C9.69664062 48.80371094 10.33859375 48.90039062 11 49 C11.66 49.99 12.32 50.98 13 52 C11.02090602 52.02686553 9.04171029 52.04633375 7.0625 52.0625 C5.96035156 52.07410156 4.85820313 52.08570313 3.72265625 52.09765625 C1 52 1 52 0 51 C-0.09333705 49.40389018 -0.11745372 47.80366572 -0.11352539 46.20483398 C-0.11344986 45.18385117 -0.11337433 44.16286835 -0.11329651 43.11094666 C-0.10813522 42.0005452 -0.10297394 40.89014374 -0.09765625 39.74609375 C-0.0962413 38.61551041 -0.09482635 37.48492706 -0.09336853 36.32008362 C-0.08775019 32.69252935 -0.07519458 29.06503576 -0.0625 25.4375 C-0.05748736 22.98502693 -0.05292405 20.5325529 -0.04882812 18.08007812 C-0.0377748 12.05336455 -0.02101884 6.02668661 0 0 Z " fill="#325FAB" transform="translate(727,485)"/>
<path d="M0 0 C0.556875 0.226875 1.11375 0.45375 1.6875 0.6875 C1.0275 2.6675 0.3675 4.6475 -0.3125 6.6875 C-1.3025 6.6875 -2.2925 6.6875 -3.3125 6.6875 C-3.6425 7.3475 -3.9725 8.0075 -4.3125 8.6875 C-6.56223447 8.741638 -8.81234383 8.78035491 -11.0625 8.8125 C-12.31546875 8.83570313 -13.5684375 8.85890625 -14.859375 8.8828125 C-18.04070492 8.70287302 -19.67771896 8.37748582 -22.3125 6.6875 C-22.3125 5.6975 -22.3125 4.7075 -22.3125 3.6875 C-18.70570909 2.94764545 -15.41081941 2.67782103 -11.75 2.8125 C-7.16862531 2.89705557 -4.11580591 -0.55618999 0 0 Z " fill="#0452AF" transform="translate(653.3125,525.3125)"/>
<path d="M0 0 C0.33 0.66 0.66 1.32 1 2 C2.65 1.67 4.3 1.34 6 1 C5.625 2.9375 5.625 2.9375 5 5 C4.01 5.495 4.01 5.495 3 6 C2.27544365 7.64232772 1.62225605 9.31624835 1 11 C0.46474166 12.2735457 -0.0770948 13.54434384 -0.625 14.8125 C-1.305625 16.3903125 -1.305625 16.3903125 -2 18 C-4 17 -4 17 -5 15 C-5.66 14.01 -6.32 13.02 -7 12 C-7 6.8079096 -7 6.8079096 -6 4 C-2.9375 1.5 -2.9375 1.5 0 0 Z " fill="#0254B0" transform="translate(566,474)"/>
<path d="M0 0 C0.66 0.33 1.32 0.66 2 1 C0.69791667 2.43229167 -0.60416667 3.86458333 -1.90625 5.296875 C-3.36024492 7.22360515 -3.36024492 7.22360515 -3 11 C-3.71285156 11.25652344 -4.42570312 11.51304687 -5.16015625 11.77734375 C-14.09544277 15.34905317 -18.2595456 19.99158335 -22.8125 28.3125 C-24.4685604 33.45500336 -25.25444093 38.65828856 -26 44 C-26.33 44 -26.66 44 -27 44 C-27.52402507 32.99547361 -24.47483536 25.80577609 -18 17 C-17.38125 16.13375 -16.7625 15.2675 -16.125 14.375 C-13.03178919 10.91788203 -9.54595029 7.98213061 -6 5 C-5.38898438 4.48566406 -4.77796875 3.97132813 -4.1484375 3.44140625 C-2.77032686 2.2886265 -1.38591761 1.14338203 0 0 Z " fill="#12266F" transform="translate(174,495)"/>
<path d="M0 0 C0.495 0.639375 0.99 1.27875 1.5 1.9375 C3.96723654 4.39240665 3.96723654 4.39240665 7.9375 4.1875 C10.86054246 4.39550677 11.70649976 4.66240583 13.6640625 6.9140625 C17.17569076 12.93679923 17.17569076 12.93679923 16.62109375 16.29296875 C16.41613281 16.85628906 16.21117187 17.41960937 16 18 C15.74605469 17.44570313 15.49210938 16.89140625 15.23046875 16.3203125 C14.88628906 15.59585937 14.54210937 14.87140625 14.1875 14.125 C13.85105469 13.40570313 13.51460937 12.68640625 13.16796875 11.9453125 C12.00532903 9.69457194 12.00532903 9.69457194 9 8 C5.02480125 7.55831125 2.75616118 7.57036297 -0.75 9.5625 C-3.53162489 12.57592697 -4.5982325 15.16358367 -6 19 C-7.39195915 14.82412255 -5.82323219 12.86525224 -4 9 C-4.99 8.67 -5.98 8.34 -7 8 C-5.68 6.68 -4.36 5.36 -3 4 C-3.66 3.34 -4.32 2.68 -5 2 C-3.35 1.34 -1.7 0.68 0 0 Z " fill="#07368D" transform="translate(797,486)"/>
<path d="M0 0 C3.69837418 2.77378064 5.65041589 5.86385163 7 10.25 C7 13 7 13 5 16 C2.86108398 16.35644531 2.86108398 16.35644531 0.24609375 16.328125 C-1.15866211 16.32039063 -1.15866211 16.32039063 -2.59179688 16.3125 C-3.57212891 16.291875 -4.55246094 16.27125 -5.5625 16.25 C-7.03879883 16.24226563 -7.03879883 16.24226563 -8.54492188 16.234375 C-15.84613458 16.15386542 -15.84613458 16.15386542 -17 15 C-17.44561155 11.16774071 -17.13550112 9.25594655 -15.3125 5.8125 C-11.23273322 0.85062149 -6.55218745 -1.79161376 0 0 Z M-14 6 C-15.51848927 8.96466952 -16 10.65761787 -16 14 C-9.07 14 -2.14 14 5 14 C4.30662478 7.05843034 4.30662478 7.05843034 0 3 C-5.4340378 0.2829811 -10.02550944 1.79839569 -14 6 Z " fill="#041C6E" transform="translate(369,491)"/>
<path d="M0 0 C3.63 0 7.26 0 11 0 C12.53597454 3.07194908 12.2265038 5.60244293 12 9 C10.64184747 12.27191292 9.50104494 14.49895506 7 17 C6.7525 17.825 6.505 18.65 6.25 19.5 C5 22 5 22 2.3125 23.3125 C-1.21690329 24.04501766 -4.40513476 24.14379461 -8 24 C-7.34 23.67 -6.68 23.34 -6 23 C-6 22.34 -6 21.68 -6 21 C-4.875 19.4375 -4.875 19.4375 -3 18 C-2.05125 17.87625 -1.1025 17.7525 -0.125 17.625 C3.91513487 16.81697303 5.36694332 15.08443782 8 12 C9.14814997 9.70370006 9.30769809 7.92301914 9.5625 5.375 C9.706875 3.93125 9.85125 2.4875 10 1 C6.7 1 3.4 1 0 1 C0 0.67 0 0.34 0 0 Z " fill="#05358B" transform="translate(413,512)"/>
<path d="M0 0 C2.64 0 5.28 0 8 0 C6.06382979 6.70212766 6.06382979 6.70212766 3 9 C2.34 9 1.68 9 1 9 C0.67 9.99 0.34 10.98 0 12 C-2.97 12 -5.94 12 -9 12 C-8.67 11.01 -8.34 10.02 -8 9 C-7.401875 8.7525 -6.80375 8.505 -6.1875 8.25 C-2.79600877 6.31200501 -1.77984235 3.4325531 0 0 Z " fill="#0951AF" transform="translate(376,523)"/>
<path d="M0 0 C1.43717025 2.87434049 0.55924527 4.87063639 0 8 C-0.1170767 9.91093553 -0.19832209 11.82435873 -0.24609375 13.73828125 C-0.27896484 14.80626953 -0.31183594 15.87425781 -0.34570312 16.97460938 C-0.40657613 19.18805545 -0.46390638 21.40160198 -0.51757812 23.61523438 C-0.72139151 30.01036016 -1.38732958 35.80395049 -3 42 C-3.33 42 -3.66 42 -4 42 C-4.07468636 37.44681299 -4.12885256 32.89399002 -4.16479492 28.34033203 C-4.1797933 26.79437032 -4.20019887 25.24845052 -4.22631836 23.70263672 C-4.48894437 7.74939365 -4.48894437 7.74939365 -1 1 C-0.67 0.67 -0.34 0.34 0 0 Z " fill="#DAEAF7" transform="translate(518,495)"/>
<path d="M0 0 C4.62 0 9.24 0 14 0 C13.25 6.75 13.25 6.75 11 9 C11.33 6.69 11.66 4.38 12 2 C8.37 2 4.74 2 1 2 C0.67 3.65 0.34 5.3 0 7 C-2.51184445 10.8574754 -4.50032784 12.90008014 -9 14 C-14.77602887 14.59899559 -18.99185327 14.2195229 -24 11 C-25.875 9.3125 -25.875 9.3125 -27 8 C-26.67 7.34 -26.34 6.68 -26 6 C-25.21625 6.639375 -24.4325 7.27875 -23.625 7.9375 C-18.65398981 11.84329372 -14.15628295 11.46328034 -8 11 C-4.9254644 10.2236068 -4.9254644 10.2236068 -3 8 C-1.72422639 5.35992971 -0.87745012 2.8170767 0 0 Z " fill="#0B1D6D" transform="translate(598,514)"/>
<path d="M0 0 C3.96 0 7.92 0 12 0 C11.40957946 6.19941562 9.11786993 10.04504314 4.5625 14.25 C-0.2584121 17.54233022 -3.98948455 18.24263668 -9.8125 18.125 C-10.97394531 18.10695313 -12.13539063 18.08890625 -13.33203125 18.0703125 C-14.21246094 18.04710937 -15.09289062 18.02390625 -16 18 C-16 17.67 -16 17.34 -16 17 C-15.31035156 16.97421875 -14.62070312 16.9484375 -13.91015625 16.921875 C-6.07612351 16.449039 0.72560211 15.27439789 6.4375 9.5625 C7.94359478 7.09250456 9.0626865 4.73383103 10 2 C6.89920344 2.01325127 3.99965073 2.18144246 1 3 C-1.49540371 5.86615486 -1.49540371 5.86615486 -3 9 C-6.21451269 10.60725635 -9.43612536 10.05748185 -13 10 C-13 9.67 -13 9.34 -13 9 C-11.741875 8.731875 -10.48375 8.46375 -9.1875 8.1875 C-5.9842473 7.37962498 -3.94665403 6.8118336 -2 4 C-1.34 2.68 -0.68 1.36 0 0 Z " fill="#081A5D" transform="translate(865,519)"/>
<path d="M0 0 C11.55 0 23.1 0 35 0 C35 16.10472973 35 16.10472973 33.5 22.875 C33.35691406 23.57496094 33.21382812 24.27492188 33.06640625 24.99609375 C32.72314783 26.66661805 32.36354067 28.33377193 32 30 C31.67 30 31.34 30 31 30 C31.0407666 29.25314941 31.0815332 28.50629883 31.12353516 27.73681641 C31.30146332 24.36667852 31.46342893 20.99595995 31.625 17.625 C31.68945312 16.449375 31.75390625 15.27375 31.8203125 14.0625 C31.871875 12.94101562 31.9234375 11.81953125 31.9765625 10.6640625 C32.02893066 9.62717285 32.08129883 8.5902832 32.13525391 7.52197266 C32.27239921 4.8269164 32.27239921 4.8269164 30 3 C29.67 2.67 29.34 2.34 29 2 C27.0231228 1.93685002 25.04403428 1.94073825 23.06640625 1.97265625 C21.2575293 1.99102539 21.2575293 1.99102539 19.41210938 2.00976562 C16.84955208 2.04486915 14.28704577 2.08391984 11.72460938 2.12695312 C10.51740234 2.13791016 9.31019531 2.14886719 8.06640625 2.16015625 C6.95209229 2.17699463 5.83777832 2.19383301 4.68969727 2.21118164 C2 2 2 2 0 0 Z " fill="#33AF22" transform="translate(172,426)"/>
<path d="M0 0 C1.11375 1.175625 1.11375 1.175625 2.25 2.375 C6.17116999 6.11793499 7.43627666 7.02482101 12.9375 6.9375 C17.27715972 6.30262386 18.97996421 4.10165838 22 1 C24.8125 1.1875 24.8125 1.1875 27 2 C27.87794657 5.43197297 28.23052342 7.40335115 26.9375 10.75 C24.53856372 13.53586149 22.52394445 14.13859136 19 15 C19.33 13.68 19.66 12.36 20 11 C20.99 11 21.98 11 23 11 C23.33 9.35 23.66 7.7 24 6 C21.85004953 6.46070367 20.0725177 6.96094036 18.12890625 8.0078125 C14.45615185 9.71951822 10.94924786 9.77527181 7 9 C4.22146544 7.39270902 1.9418505 5.56623973 0 3 C0 2.01 0 1.02 0 0 Z " fill="#06348B" transform="translate(630,520)"/>
<path d="M0 0 C0.8353125 1.1446875 0.8353125 1.1446875 1.6875 2.3125 C4.46275582 5.53779731 6.66355532 7.66556772 10.9921875 8.28515625 C14.03407752 8.41329447 16.32938738 8.46942884 18.875 6.6875 C19.24625 6.130625 19.6175 5.57375 20 5 C20.66 4.01 21.32 3.02 22 2 C24.8203125 1.70703125 24.8203125 1.70703125 28.125 1.8125 C29.76855469 1.85310547 29.76855469 1.85310547 31.4453125 1.89453125 C32.28835938 1.92933594 33.13140625 1.96414063 34 2 C32.6351911 7.21108854 30.65575714 10.16591324 27 14 C26.01 14.33 25.02 14.66 24 15 C24 13 24 13 26.375 10.625 C27.24125 9.75875 28.1075 8.8925 29 8 C30.29519995 5.83379456 30.29519995 5.83379456 31 4 C28.15916077 4.14444945 25.72494183 4.26854113 23 5 C22.2575 5.845625 21.515 6.69125 20.75 7.5625 C16.91214242 10.9642374 13.90153776 10.82029614 8.89453125 10.62890625 C4.88405674 9.7575346 3.25661404 8.06725545 0.890625 4.82421875 C0 3 0 3 0 0 Z " fill="#061A64" transform="translate(353,519)"/>
<path d="M0 0 C3.37452744 1.39635618 5.11638118 2.8606353 7 6 C7.6875 8.75 7.6875 8.75 8 11 C5.03 11 2.06 11 -1 11 C-1.12375 10.030625 -1.2475 9.06125 -1.375 8.0625 C-1.58125 7.051875 -1.7875 6.04125 -2 5 C-2.66 4.67 -3.32 4.34 -4 4 C-2.68 2.68 -1.36 1.36 0 0 Z " fill="#0B52B4" transform="translate(867,490)"/>
<path d="M0 0 C1.37478516 0.01740234 1.37478516 0.01740234 2.77734375 0.03515625 C3.69644531 0.04417969 4.61554688 0.05320312 5.5625 0.0625 C6.27277344 0.07410156 6.98304688 0.08570313 7.71484375 0.09765625 C7.71484375 0.75765625 7.71484375 1.41765625 7.71484375 2.09765625 C4.74484375 2.09765625 1.77484375 2.09765625 -1.28515625 2.09765625 C-1.28515625 12.32765625 -1.28515625 22.55765625 -1.28515625 33.09765625 C-1.94515625 32.76765625 -2.60515625 32.43765625 -3.28515625 32.09765625 C-3.30981129 27.70109452 -3.32799467 23.30456905 -3.34008789 18.90795898 C-3.34512746 17.41120707 -3.35195912 15.91446009 -3.3605957 14.41772461 C-3.37267784 12.27065818 -3.37838816 10.12365663 -3.3828125 7.9765625 C-3.38804932 6.68306885 -3.39328613 5.3895752 -3.39868164 4.05688477 C-3.24837222 0.13881933 -3.24837222 0.13881933 0 0 Z " fill="#011A78" transform="translate(485.28515625,491.90234375)"/>
<path d="M0 0 C-0.33 0.66 -0.66 1.32 -1 2 C-1.99 1.67 -2.98 1.34 -4 1 C-5.89212737 0.77820215 -7.78884472 0.59385985 -9.6875 0.4375 C-10.68136719 0.35371094 -11.67523438 0.26992188 -12.69921875 0.18359375 C-13.83810547 0.09271484 -13.83810547 0.09271484 -15 0 C-16.30217374 2.82995081 -16.30217374 2.82995081 -15.25 4.875 C-15.1675 5.57625 -15.085 6.2775 -15 7 C-16.66666667 8.66666667 -18.33333333 10.33333333 -20 12 C-20.97248094 14.33395426 -21.46344051 16.51231508 -22 19 C-22.33 19 -22.66 19 -23 19 C-23 15.37 -23 11.74 -23 8 C-22.01 8 -21.02 8 -20 8 C-19.34 6.68 -18.68 5.36 -18 4 C-18.99 3.67 -19.98 3.34 -21 3 C-21 2.01 -21 1.02 -21 0 C-13.97936464 -2.39000353 -6.85221454 -3.53662686 0 0 Z " fill="#0F3C97" transform="translate(374,486)"/>
<path d="M0 0 C0.33 0 0.66 0 1 0 C1 11.55 1 23.1 1 35 C-1.97 35 -4.94 35 -8 35 C-5 33 -5 33 -2 32 C-1.96241577 30.75911621 -1.96241577 30.75911621 -1.92407227 29.49316406 C-1.80803651 25.74528808 -1.685344 21.99765875 -1.5625 18.25 C-1.52318359 16.94804688 -1.48386719 15.64609375 -1.44335938 14.3046875 C-1.40146484 13.05429687 -1.35957031 11.80390625 -1.31640625 10.515625 C-1.27974854 9.36352539 -1.24309082 8.21142578 -1.20532227 7.02441406 C-1.03547826 4.52259776 -0.72031525 2.38908832 0 0 Z " fill="#0F4FA9" transform="translate(512,500)"/>
<path d="M0 0 C0.66 0.33 1.32 0.66 2 1 C1.01 2.485 1.01 2.485 0 4 C5.445 4.495 5.445 4.495 11 5 C11 5.33 11 5.66 11 6 C0.44 6 -10.12 6 -21 6 C-15.83799326 1.8703946 -14.96348499 1.50046477 -8.8125 1.3125 C-4.2418771 1.32042533 -4.2418771 1.32042533 0 0 Z " fill="#03439F" transform="translate(374,506)"/>
<path d="M0 0 C0.66 0.33 1.32 0.66 2 1 C1.34 1.66 0.68 2.32 0 3 C-0.42355123 5.13592982 -0.42355123 5.13592982 -0.5625 7.5 C-0.90540541 11.81081081 -0.90540541 11.81081081 -2 14 C-2.27175818 16.59248672 -2.44572568 19.18448511 -2.62109375 21.78515625 C-2.80865234 22.88150391 -2.80865234 22.88150391 -3 24 C-3.66 24.33 -4.32 24.66 -5 25 C-5.66 25.99 -6.32 26.98 -7 28 C-5.86882369 6.35162572 -5.86882369 6.35162572 -1.3984375 1.12890625 C-0.93695313 0.75636719 -0.47546875 0.38382812 0 0 Z " fill="#1E7F16" transform="translate(166,426)"/>
<path d="M0 0 C-2.23077141 2.23077141 -3.39211073 2.50484061 -6.375 3.3125 C-10.60564478 4.6524309 -12.65910388 6.09850647 -15 10 C-15.33 10.99 -15.66 11.98 -16 13 C-13.36 13.33 -10.72 13.66 -8 14 C-7.34 12.35 -6.68 10.7 -6 9 C-5.01 9 -4.02 9 -3 9 C-3.7115625 9.8971875 -3.7115625 9.8971875 -4.4375 10.8125 C-6.16465744 13.00382924 -6.16465744 13.00382924 -7 16 C-10.96 16 -14.92 16 -19 16 C-16.85822127 8.02782361 -14.87440246 5.19882661 -8 0.6875 C-5.28926776 -0.24431421 -2.84179171 -0.12917235 0 0 Z " fill="#0F2369" transform="translate(412,485)"/>
<path d="M0 0 C0.66 0.66 1.32 1.32 2 2 C1.34 2.66 0.68 3.32 0 4 C-0.64767793 6.57061311 -0.64767793 6.57061311 -1 9 C-1.66 8.67 -2.32 8.34 -3 8 C-2.67 7.34 -2.34 6.68 -2 6 C-4.64 6.99 -7.28 7.98 -10 9 C-10.33 8.67 -10.66 8.34 -11 8 C-12.92667507 7.91251793 -14.85651861 7.89302666 -16.78515625 7.90234375 C-17.95498047 7.90556641 -19.12480469 7.90878906 -20.33007812 7.91210938 C-21.56177734 7.92048828 -22.79347656 7.92886719 -24.0625 7.9375 C-25.29806641 7.94201172 -26.53363281 7.94652344 -27.80664062 7.95117188 C-30.87114117 7.96300392 -33.93554721 7.97948827 -37 8 C-36.67 7.34 -36.34 6.68 -36 6 C-20.655 5.505 -20.655 5.505 -5 5 C-4.67 4.34 -4.34 3.68 -4 3 C-3.34 3 -2.68 3 -2 3 C-1.34 2.01 -0.68 1.02 0 0 Z " fill="#30AC20" transform="translate(157,471)"/>
<path d="M0 0 C8.26198749 4.58999305 8.26198749 4.58999305 9.69140625 9.2578125 C10.19211013 11.49172214 10.60214708 13.74550012 11 16 C6.71 16 2.42 16 -2 16 C-2.66 13.69 -3.32 11.38 -4 9 C-3.01 9.33 -2.02 9.66 -1 10 C-0.67 11.32 -0.34 12.64 0 14 C2.97 14 5.94 14 9 14 C6.57912323 8.62027384 4.86064532 5.51046606 0 2 C0 1.34 0 0.68 0 0 Z " fill="#061B60" transform="translate(866,487)"/>
<path d="M0 0 C0.66 0.33 1.32 0.66 2 1 C0.69791667 2.43229167 -0.60416667 3.86458333 -1.90625 5.296875 C-3.36024492 7.22360515 -3.36024492 7.22360515 -3 11 C-6.465 12.485 -6.465 12.485 -10 14 C-10.33 12.68 -10.66 11.36 -11 10 C-5.555 5.05 -5.555 5.05 0 0 Z " fill="#0B4292" transform="translate(174,495)"/>
<path d="M0 0 C0.99 0.2165625 0.99 0.2165625 2 0.4375 C5.64931024 1.12174567 9.31520229 1.56213556 13 2 C14.50011765 2.18655637 16.00012284 2.37401986 17.5 2.5625 C18.655 2.706875 19.81 2.85125 21 3 C18.26949638 5.73050362 16.37015426 5.4613484 12.5625 5.75 C11.40878906 5.84796875 10.25507812 5.9459375 9.06640625 6.046875 C6 6 6 6 3 4 C1.96352976 2.69481525 0.95577057 1.36538653 0 0 Z " fill="#0F4AA3" transform="translate(841,531)"/>
<path d="M0 0 C0 3.51716303 -0.82445585 4.37121748 -3 7 C-2.34 7.33 -1.68 7.66 -1 8 C-1 9.32 -1 10.64 -1 12 C-2.32 12.33 -3.64 12.66 -5 13 C-5.33 14.98 -5.66 16.96 -6 19 C-6.33 19 -6.66 19 -7 19 C-8.33957937 14.15690535 -8.19181724 11.70358308 -5.75 7.25 C-4.09225156 4.46108204 -2.37718329 2.20938212 0 0 Z " fill="#09398A" transform="translate(839,489)"/>
<path d="M0 0 C0.33 0 0.66 0 1 0 C1.33 9.24 1.66 18.48 2 28 C-1.63 28 -5.26 28 -9 28 C-9 27.34 -9 26.68 -9 26 C-6.03 26 -3.06 26 0 26 C0 17.42 0 8.84 0 0 Z " fill="#011870" transform="translate(288,509)"/>
<path d="M0 0 C3.3 0 6.6 0 10 0 C10 0.66 10 1.32 10 2 C9.09507812 2.00386719 9.09507812 2.00386719 8.171875 2.0078125 C5.65728592 2.12948617 3.43199542 2.33634667 1 3 C-1.49540371 5.86615486 -1.49540371 5.86615486 -3 9 C-6.21451269 10.60725635 -9.43612536 10.05748185 -13 10 C-13 9.67 -13 9.34 -13 9 C-11.741875 8.731875 -10.48375 8.46375 -9.1875 8.1875 C-5.9842473 7.37962498 -3.94665403 6.8118336 -2 4 C-1.34 2.68 -0.68 1.36 0 0 Z " fill="#0E246E" transform="translate(865,519)"/>
<path d="M0 0 C3.25985541 4.34647388 3.34252339 4.7480032 2.6875 9.75 C2.50767578 11.22726562 2.50767578 11.22726562 2.32421875 12.734375 C2.21722656 13.48203125 2.11023438 14.2296875 2 15 C0.68 14.67 -0.64 14.34 -2 14 C-1.34 9.38 -0.68 4.76 0 0 Z " fill="#25871C" transform="translate(110,500)"/>
<path d="M0 0 C1.15941038 3.47823115 0.70820884 5.45895578 0 9 C-0.66 9 -1.32 9 -2 9 C-2.33 13.95 -2.66 18.9 -3 24 C-3.33 24 -3.66 24 -4 24 C-4.55839416 8.11678832 -4.55839416 8.11678832 -1 1 C-0.67 0.67 -0.34 0.34 0 0 Z " fill="#011158" transform="translate(783,494)"/>
<path d="M0 0 C0.66 0.66 1.32 1.32 2 2 C0 4 0 4 -2.765625 4.89453125 C-7.23674802 6.42270494 -10.72748394 8.99045695 -14.609375 11.63671875 C-15.39828125 12.08660156 -16.1871875 12.53648437 -17 13 C-17.66 12.67 -18.32 12.34 -19 12 C-12.87088942 7.55991363 -6.70629026 3.51513281 0 0 Z " fill="#0F2B77" transform="translate(195,482)"/>
<path d="M0 0 C-1.3648089 5.21108854 -3.34424286 8.16591324 -7 12 C-7.99 12.33 -8.98 12.66 -10 13 C-10 11 -10 11 -7.625 8.625 C-6.75875 7.75875 -5.8925 6.8925 -5 6 C-3.70480005 3.83379456 -3.70480005 3.83379456 -3 2 C-5.64 2 -8.28 2 -11 2 C-11 1.67 -11 1.34 -11 1 C-7.26513121 0.4254048 -3.78706732 0 0 0 Z " fill="#0C236E" transform="translate(387,521)"/>
<path d="M0 0 C0.66 0 1.32 0 2 0 C2 4.62 2 9.24 2 14 C-0.64 14 -3.28 14 -6 14 C-6 13.67 -6 13.34 -6 13 C-4.35 12.67 -2.7 12.34 -1 12 C-0.67 8.04 -0.34 4.08 0 0 Z " fill="#DDEFFB" transform="translate(470,471)"/>
<path d="M0 0 C0.33 1.32 0.66 2.64 1 4 C0.34 4 -0.32 4 -1 4 C-1.226875 4.763125 -1.45375 5.52625 -1.6875 6.3125 C-3.82774525 10.69490694 -7.80971348 11.90485674 -12 14 C-8 9.33333333 -4 4.66666667 0 0 Z " fill="#EBFCEA" transform="translate(201,466)"/>
<path d="M0 0 C-1.11375 0.2475 -2.2275 0.495 -3.375 0.75 C-7.04615198 1.61005339 -7.04615198 1.61005339 -8.4375 4.125 C-8.623125 4.74375 -8.80875 5.3625 -9 6 C-9 5.34 -9 4.68 -9 4 C-10.65 5.32 -12.3 6.64 -14 8 C-14.66 7.67 -15.32 7.34 -16 7 C-15.54625 6.566875 -15.0925 6.13375 -14.625 5.6875 C-12.79975666 3.89201658 -12.79975666 3.89201658 -11 1 C-3.99038462 -1.59615385 -3.99038462 -1.59615385 0 0 Z " fill="#104EAA" transform="translate(579,468)"/>
<path d="M0 0 C0 1.65 0 3.3 0 5 C-0.99 5.495 -0.99 5.495 -2 6 C-2.66 4.68 -3.32 3.36 -4 2 C-7.34373475 2.55728913 -10.03312999 3.35173889 -13 5 C-8.91137168 -0.54885272 -6.64036893 -3.32018447 0 0 Z " fill="#06358A" transform="translate(407,510)"/>
<path d="M0 0 C1.125 1.75 1.125 1.75 2 4 C1.33333333 5.33333333 0.66666667 6.66666667 0 8 C-0.59298682 10.40458878 -1.13065418 12.82321143 -1.625 15.25 C-2.01558594 17.14492188 -2.01558594 17.14492188 -2.4140625 19.078125 C-2.60742188 20.04234375 -2.80078125 21.0065625 -3 22 C-5.29429155 15.1984832 -2.51142824 6.45795832 0 0 Z " fill="#35AC23" transform="translate(116,482)"/>
<path d="M0 0 C1.60332791 -0.08121924 3.20784026 -0.13929134 4.8125 -0.1875 C6.15248047 -0.23970703 6.15248047 -0.23970703 7.51953125 -0.29296875 C10.41647515 0.04918998 11.22555028 0.75393573 13 3 C11.68 3 10.36 3 9 3 C9 3.66 9 4.32 9 5 C8.01 4.67 7.02 4.34 6 4 C6 3.34 6 2.68 6 2 C3.03 1.505 3.03 1.505 0 1 C0 0.67 0 0.34 0 0 Z " fill="#0753AD" transform="translate(852,486)"/>
<path d="M0 0 C2.31 0 4.62 0 7 0 C7 1.98 7 3.96 7 6 C4.03 6 1.06 6 -2 6 C-0.25 4.4375 -0.25 4.4375 2 3 C4.25 3.3125 4.25 3.3125 6 4 C6 3.34 6 2.68 6 2 C4.35 2 2.7 2 1 2 C0.67 1.34 0.34 0.68 0 0 Z " fill="#1056B7" transform="translate(901,529)"/>
<path d="M0 0 C0.66 0.33 1.32 0.66 2 1 C2.10853491 2.74861792 2.18583428 4.49919241 2.25 6.25 C2.29640625 7.22453125 2.3428125 8.1990625 2.390625 9.203125 C2 12 2 12 -2 16 C-1.34 10.72 -0.68 5.44 0 0 Z " fill="#EFF8FD" transform="translate(667,506)"/>
<path d="M0 0 C0.33 0 0.66 0 1 0 C1 1.65 1 3.3 1 5 C-5.93 5 -12.86 5 -20 5 C-20 4.01 -20 3.02 -20 2 C-19.16210938 2.15339844 -18.32421875 2.30679687 -17.4609375 2.46484375 C-13.84433176 3.0240706 -10.27600704 3.32139576 -6.625 3.5625 C-5.37976563 3.64628906 -4.13453125 3.73007812 -2.8515625 3.81640625 C-1.91054688 3.87699219 -0.96953125 3.93757813 0 4 C0 2.68 0 1.36 0 0 Z " fill="#E7F4FD" transform="translate(373,500)"/>
<path d="M0 0 C2.31 0 4.62 0 7 0 C6.67 1.65 6.34 3.3 6 5 C4.02 5 2.04 5 0 5 C0 3.35 0 1.7 0 0 Z " fill="#0B57B3" transform="translate(466,487)"/>
<path d="M0 0 C2.97 0 5.94 0 9 0 C8.01 0.33 7.02 0.66 6 1 C5.26676204 3.01508358 5.26676204 3.01508358 5 5 C2.36 4.67 -0.28 4.34 -3 4 C-2.505 3.525625 -2.01 3.05125 -1.5 2.5625 C0.11542197 1.24076302 0.11542197 1.24076302 0 0 Z " fill="#1F53A8" transform="translate(410,484)"/>
<path d="M0 0 C0.86625 0.2784375 0.86625 0.2784375 1.75 0.5625 C4.20692525 1.04023546 5.64397534 0.75729364 8 0 C2.71428571 6.42857143 2.71428571 6.42857143 0 9 C-1.53445094 5.93109813 -0.54984289 3.29905734 0 0 Z " fill="#0D3489" transform="translate(843,493)"/>
<path d="M0 0 C0.33 0 0.66 0 1 0 C0.88590318 2.10478604 0.75834639 4.20884577 0.625 6.3125 C0.52058594 8.07013672 0.52058594 8.07013672 0.4140625 9.86328125 C0 13 0 13 -2 16 C-2.22151549 14.20991533 -2.42682213 12.41781838 -2.625 10.625 C-2.74101562 9.62726563 -2.85703125 8.62953125 -2.9765625 7.6015625 C-2.98429688 6.74304688 -2.99203125 5.88453125 -3 5 C-2.34 4.34 -1.68 3.68 -1 3 C-0.67 2.01 -0.34 1.02 0 0 Z " fill="#34A627" transform="translate(161,448)"/>
<path d="M0 0 C0.33 0 0.66 0 1 0 C1 1.65 1 3.3 1 5 C3.97851562 4.90234375 3.97851562 4.90234375 6.95703125 4.8046875 C9 5 9 5 12 7 C8.04 7 4.08 7 0 7 C-1.33332095 4.3333581 -0.67102033 2.83319697 0 0 Z " fill="#273E7F" transform="translate(728,530)"/>
<path d="M0 0 C0.66 0.99 1.32 1.98 2 3 C1.278125 3.37125 0.55625 3.7425 -0.1875 4.125 C-3.57954762 6.38636508 -5.50498266 8.79212057 -8 12 C-8.33 11.34 -8.66 10.68 -9 10 C-7.87970983 8.51726301 -6.75361382 7.03891114 -5.625 5.5625 C-4.99851563 4.73878906 -4.37203125 3.91507812 -3.7265625 3.06640625 C-2 1 -2 1 0 0 Z " fill="#0F3079" transform="translate(162,506)"/>
<path d="M0 0 C0.99 0.99 1.98 1.98 3 3 C-0.17320782 6.53586014 -2.16743695 8.58578031 -7 9 C-6.25 7.0625 -6.25 7.0625 -5 5 C-2.875 4.25 -2.875 4.25 -1 4 C-0.67 2.68 -0.34 1.36 0 0 Z " fill="#29941F" transform="translate(163,496)"/>
<path d="M0 0 C1.299375 0.12375 2.59875 0.2475 3.9375 0.375 C4.5975 1.365 5.2575 2.355 5.9375 3.375 C4.9475 3.87 4.9475 3.87 3.9375 4.375 C3.2775 4.045 2.6175 3.715 1.9375 3.375 C0.39726004 3.30549459 -1.14584988 3.29047643 -2.6875 3.3125 C-3.50476563 3.32152344 -4.32203125 3.33054687 -5.1640625 3.33984375 C-5.79054688 3.35144531 -6.41703125 3.36304688 -7.0625 3.375 C-4.80818676 0.70374481 -3.50036384 -0.03925642 0 0 Z " fill="#0C2879" transform="translate(365.0625,490.625)"/>
<path d="M0 0 C1.03387225 3.1981115 1.11048522 3.75894134 -0.375 7 C-0.91125 7.99 -1.4475 8.98 -2 10 C-2.68636625 12.23525035 -2.68636625 12.23525035 -3 14 C-3.99 14 -4.98 14 -6 14 C-6.33 13.01 -6.66 12.02 -7 11 C-6.06414062 10.64808594 -6.06414062 10.64808594 -5.109375 10.2890625 C-2.39744059 8.63176925 -2.11024003 7.3858401 -1.25 4.375 C-1.00765625 3.55773437 -0.7653125 2.74046875 -0.515625 1.8984375 C-0.34546875 1.27195312 -0.1753125 0.64546875 0 0 Z " fill="#30A622" transform="translate(202,456)"/>
<path d="M0 0 C0.33 0 0.66 0 1 0 C1 4.29 1 8.58 1 13 C-1.81870287 10.18129713 -1.7303841 7.90943055 -2 4 C-1.0625 1.5625 -1.0625 1.5625 0 0 Z " fill="#C9DEF1" transform="translate(553,496)"/>
<path d="M0 0 C0.33 0.66 0.66 1.32 1 2 C1.5775 1.79375 2.155 1.5875 2.75 1.375 C5.53731028 0.91044829 6.58030999 1.66815382 9 3 C8.38511719 3.03738281 7.77023437 3.07476562 7.13671875 3.11328125 C5.92435547 3.21189453 5.92435547 3.21189453 4.6875 3.3125 C3.88699219 3.37050781 3.08648438 3.42851562 2.26171875 3.48828125 C-0.36272334 4.08206694 -1.30820672 4.95780294 -3 7 C-2.25 2.25 -2.25 2.25 0 0 Z " fill="#1C49A2" transform="translate(517,491)"/>
<path d="M0 0 C1.49080078 0.02707031 1.49080078 0.02707031 3.01171875 0.0546875 C3.77097656 0.07789063 4.53023437 0.10109375 5.3125 0.125 C5.3125 0.455 5.3125 0.785 5.3125 1.125 C4.70921875 1.25777344 4.1059375 1.39054687 3.484375 1.52734375 C2.68515625 1.70394531 1.8859375 1.88054687 1.0625 2.0625 C0.27359375 2.23652344 -0.5153125 2.41054688 -1.328125 2.58984375 C-2.10671875 2.76644531 -2.8853125 2.94304687 -3.6875 3.125 C-4.40421875 3.27066406 -5.1209375 3.41632813 -5.859375 3.56640625 C-7.91304875 4.03747344 -7.91304875 4.03747344 -9.6875 6.125 C-9.375 4.25 -9.375 4.25 -8.6875 2.125 C-5.26655758 -0.15562828 -4.00562778 -0.09425007 0 0 Z " fill="#1056B8" transform="translate(527.6875,486.875)"/>
<path d="M0 0 C1.32 0.33 2.64 0.66 4 1 C4 1.66 4 2.32 4 3 C5.32 3.33 6.64 3.66 8 4 C7.01 5.485 7.01 5.485 6 7 C4.02 6.01 2.04 5.02 0 4 C0 2.68 0 1.36 0 0 Z " fill="#0051AB" transform="translate(866,493)"/>
<path d="M0 0 C0.99 0.33 1.98 0.66 3 1 C3 1.99 3 2.98 3 4 C0.69 4.66 -1.62 5.32 -4 6 C-2.84826645 3.53199953 -1.95216435 1.95216435 0 0 Z " fill="#0D388D" transform="translate(788,488)"/>
<path d="M0 0 C0.66 1.65 1.32 3.3 2 5 C1.01 5 0.02 5 -1 5 C-1 4.34 -1 3.68 -1 3 C-1.598125 3.515625 -2.19625 4.03125 -2.8125 4.5625 C-3.534375 5.036875 -4.25625 5.51125 -5 6 C-5.99 5.67 -6.98 5.34 -8 5 C-2.25 0 -2.25 0 0 0 Z " fill="#E4F0FC" transform="translate(425,530)"/>
<path d="M0 0 C0 1.98 0 3.96 0 6 C-1.98 6.99 -1.98 6.99 -4 8 C-4.36780384 3.46375267 -4.36780384 3.46375267 -2.5625 1.1875 C-1 0 -1 0 0 0 Z " fill="#114AA2" transform="translate(419,527)"/>
<path d="M0 0 C0.66 0 1.32 0 2 0 C3.125 3.75 3.125 3.75 2 6 C0.68 6 -0.64 6 -2 6 C-1.125 1.125 -1.125 1.125 0 0 Z " fill="#0356B3" transform="translate(400,492)"/>
<path d="M0 0 C6.93 0.495 6.93 0.495 14 1 C14 1.33 14 1.66 14 2 C8.06 2.495 8.06 2.495 2 3 C1.34 2.01 0.68 1.02 0 0 Z " fill="#EDF6FC" transform="translate(146,564)"/>
<path d="M0 0 C0.33 0 0.66 0 1 0 C1.33 4.62 1.66 9.24 2 14 C0.02 14.99 0.02 14.99 -2 16 C-1.67 15.01 -1.34 14.02 -1 13 C-0.77548542 10.77425665 -0.59217122 8.54418481 -0.4375 6.3125 C-0.35371094 5.13300781 -0.26992188 3.95351563 -0.18359375 2.73828125 C-0.12300781 1.83464844 -0.06242188 0.93101562 0 0 Z " fill="#024199" transform="translate(841,506)"/>
<path d="M0 0 C2.95183101 2.95183101 3.08663988 5.95511947 4 10 C2.68 9.34 1.36 8.68 0 8 C0 5.36 0 2.72 0 0 Z " fill="#082771" transform="translate(567,510)"/>
<path d="M0 0 C-0.3125 1.875 -0.3125 1.875 -1 4 C-1.99 4.66 -2.98 5.32 -4 6 C-4.99 5.34 -5.98 4.68 -7 4 C-2.25 0 -2.25 0 0 0 Z " fill="#D5EFE6" transform="translate(165,501)"/>
<path d="M0 0 C0.99 0.33 1.98 0.66 3 1 C3.1875 3.375 3.1875 3.375 3 6 C2.01 6.66 1.02 7.32 0 8 C0 5.36 0 2.72 0 0 Z " fill="#EEFEF0" transform="translate(209,428)"/>
<path d="M0 0 C2.18975773 3.28463659 2.99806563 6.20696275 4 10 C3.01 10.495 3.01 10.495 2 11 C0.19769832 7.17010894 -0.19622241 4.21878192 0 0 Z " fill="#0F236F" transform="translate(341,515)"/>
<path d="M0 0 C1.15941038 3.47823115 0.70820884 5.45895578 0 9 C-0.66 9 -1.32 9 -2 9 C-2.6875 7.3125 -2.6875 7.3125 -3 5 C-1.5625 2.25 -1.5625 2.25 0 0 Z " fill="#0C2D7D" transform="translate(783,494)"/>
<path d="M0 0 C0.66 0.33 1.32 0.66 2 1 C0.15794162 3.54379491 -1.72478134 5.83312509 -4 8 C-4.33 7.01 -4.66 6.02 -5 5 C-3.35 3.35 -1.7 1.7 0 0 Z " fill="#339922" transform="translate(178,485)"/>
<path d="M0 0 C0.66 0.33 1.32 0.66 2 1 C-1.465 3.97 -1.465 3.97 -5 7 C-5.33 6.01 -5.66 5.02 -6 4 C-4.02 2.68 -2.04 1.36 0 0 Z " fill="#30AC21" transform="translate(191,473)"/>
<path d="M0 0 C0 3 0 3 -2 5.1875 C-2.66 5.785625 -3.32 6.38375 -4 7 C-4.33 6.34 -4.66 5.68 -5 5 C-5.66 4.67 -6.32 4.34 -7 4 C-6.030625 3.525625 -5.06125 3.05125 -4.0625 2.5625 C-1.19522563 1.29806053 -1.19522563 1.29806053 0 0 Z " fill="#E8F1FA" transform="translate(239,513)"/>
<path d="M0 0 C-0.33 0.66 -0.66 1.32 -1 2 C-3.64860427 2.59355614 -6.29197322 2.74209269 -9 3 C-5.93488101 -0.06511899 -4.25015687 -1.41671896 0 0 Z " fill="#E5FAE2" transform="translate(150,513)"/>
<path d="M0 0 C0.99 0.33 1.98 0.66 3 1 C2.1875 2.9375 2.1875 2.9375 1 5 C0.01 5.33 -0.98 5.66 -2 6 C-2.33 5.01 -2.66 4.02 -3 3 C-2.01 2.01 -1.02 1.02 0 0 Z " fill="#DFF5E8" transform="translate(182,485)"/>
</svg>
